<svg width="95" height="59" viewBox="0 0 95 59" fill="none" xmlns="http://www.w3.org/2000/svg">
<g clip-path="url(#clip0_261_3)">
<path d="M0.521601 43.3272L0.104324 40.8931L0.521601 23.2632L1.00842 22.2548L0.995127 22.8302L1.63434 22.6373L5.07687 21.6636L2.05162 22.7764L0.993965 22.8807L0.521601 43.3272Z" fill="#242424"/>
<path d="M5.63323 49.4821L3.75548 48.0564L1.42569 44.7877L2.23603 45.6918L2.32979 45.3441L3.51207 45.6918L4.13799 46.422L3.19912 45.6918L2.43411 45.5179L2.23603 45.6918L5.63323 49.4821Z" fill="#242424"/>
<path d="M17.1084 58.384L13.0747 56.2628L13.7701 54.1764L13.3876 56.2628H18.847L22.3591 55.9498L27.8185 53.168L28.5139 51.0468L31.2958 50.3166L37.4158 52.3682L52.2291 56.2628L63.2522 56.8192L67.6336 55.4978L77.5092 49.1691L73.3176 52.7855H75.2086L75.0514 52.2422L75.0403 52.2291L74.8664 51.6032L75.0514 52.2422L75.5132 52.7855L79.2478 52.5421L80.8474 52.09L83.8726 51.0468L87.3499 49.3777L87.5794 49.2734L86.8979 48.8909L86.0286 47.3261L86.8979 48.6823L87.8089 49.1691L90.1666 47.9173L88.4974 48.9952L83.664 51.325L79.2478 52.7855L75.6314 52.9246H75.2489H73.157L69.6504 55.9498L64.7127 58.384H60.0531L49.1691 56.3671L31.2958 51.0468L29.3832 51.5337L28.8964 52.3682L27.8185 53.933L23.437 56.8192L17.1084 58.384Z" fill="#242424"/>
<path d="M13.3876 52.5769L7.02415 50.3166L14.396 52.716L14.0135 52.6632L14.1526 53.168H13.7701L13.8918 52.6464L13.3876 52.5769Z" fill="#242424"/>
<path d="M34.5992 28.653L17.1084 47.2914L18.847 46.9784L34.5992 28.653Z" fill="#242424"/>
<path d="M61.5135 15.3349L61.2006 39.0501H60.4356L60.9224 28.6878V16.6563L61.0936 16.2738L53.0985 15.9261H61.2491L61.5135 15.3349Z" fill="#242424"/>
<path d="M6.50256 16.3781L8.06735 15.6826L9.73645 15.3349L6.58044 16.353L6.50256 18.3254L6.12006 21.0029L6.58044 16.353L6.50256 16.3781Z" fill="#242424"/>
<path d="M12.1706 14.9872H11.3708L27.3664 12.6846L28.34 11.6052L37.0333 5.668L28.5487 11.9271L27.7489 12.6295L29.4876 12.3792L39.7108 11.6052L41.6581 10.0842L40.1901 11.5689L40.8236 11.5209L45.97 7.99779L58.8708 2.74706L62.2438 2.12115L64.8865 2.74706L62.0004 2.26024L59.0794 2.85138L56.5062 3.88217L59.2533 5.00731L64.3302 7.61529L58.0362 4.72913L56.0889 4.04932L47.187 7.61529L45.97 8.20643L40.9974 11.5078L47.187 11.098L50.4271 10.7939L51.5337 10.7101V11.2779L51.325 10.9883L51.5337 10.7101L50.5948 10.7939L52.2291 15.5783L50.4325 10.8084L47.187 11.098L31.2958 27.2621L45.1702 11.2779L40.0238 11.7372L28.9312 12.7269L12.1706 14.9872Z" fill="#242424"/>
<path d="M80.5692 44.5443L79.978 45.657L80.3258 44.0227L80.5692 33.4864L76.8137 31.6087L75.6314 44.0227L71.1805 49.1691L69.0593 50.9078L62.2438 53.5157L68.7811 50.4557L75.0403 44.3009L76.4312 31.6087L73.7537 30.496L70.4502 29.3137L71.8411 29.6266L76.8137 31.6087L80.5692 33.4864L83.7335 35.3642L85.9548 36.7327L86.2372 36.8942L87.1761 37.4854L85.9548 36.7327L83.5597 35.3642L81.056 33.9037L80.8397 38.6329L81.8906 38.5285L83.8726 38.0417L86.1329 37.0681L85.8895 37.2767L83.5597 38.3199L81.6124 38.7372H80.8348L80.5692 44.5443Z" fill="#242424"/>
<path d="M67.6336 18.4297L64.0868 21.0029L64.1911 20.7247L66.4513 19.0721L63.8433 16.42L63.4261 15.9956L64.504 15.9261L66.4513 16.2738L74.0666 19.0721L75.6314 21.6984L74.4839 21.2811L69.9286 19.3338L74.2871 21.0029L72.9191 19.0721L66.0341 16.6563L64.2259 16.2738L63.905 16.3964L66.7991 18.8179L67.425 18.3602L67.6336 18.4297Z" fill="#242424"/>
<path d="M64.3302 23.3327L64.2258 22.22L64.1911 23.1589L65.2343 26.4971L66.034 27.8532L66.4513 27.6446L65.582 26.81L64.3302 23.3327Z" fill="#242424"/>
<path d="M65.2343 50.9077L58.8708 45.3441L65.2343 50.4557V50.9077Z" fill="#242424"/>
<path d="M57.9667 45.657L64.0867 51.0469H63.7042L57.9667 45.657Z" fill="#242424"/>
<path d="M67.0077 39.7804L74.0666 42.0754V41.6234L67.0077 39.7804Z" fill="#242424"/>
<path d="M67.425 40.8583L73.4755 43.4663V44.0227L67.425 40.8583Z" fill="#242424"/>
<path d="M39.7108 45.97L20.6552 48.0564L38.3895 46.3525L50.8034 45.3441L39.7108 45.97Z" fill="#242424"/>
<path d="M12.7269 49.1691L6.57211 49.795L7.02416 49.4821L12.7269 49.1691Z" fill="#242424"/>
<path d="M67.2859 32.3389L63.9477 30.6698L67.5641 32.3389H67.2859Z" fill="#242424"/>
<path d="M64.3302 31.3653L67.0425 32.7214V32.5128L64.3302 31.1914V31.3653Z" fill="#242424"/>
<path d="M63.3217 31.3653L63.4261 30.8089L63.5304 31.2957L63.8433 31.8173L67.112 33.4864L64.1911 32.1998L63.5304 31.8173L63.3217 31.3653Z" fill="#242424"/>
<path d="M67.7379 33.0692V32.5128L67.6336 33.0692L67.4597 33.3821L67.7379 33.0692Z" fill="#242424"/>
<path d="M58.8708 13.5615L53.0985 11.2779L57.2712 13.1094L60.9224 14.5351L58.8708 13.5615Z" fill="#242424"/>
<path d="M26.2189 50.3166L23.8891 52.716L27.2273 49.4125L28.5139 48.9257L31.1567 48.265L29.9744 48.4041L27.2273 49.1691L26.2189 50.3166Z" fill="#242424"/>
<path d="M1.32138 21.8027L1.35602 21.7617L3.96413 18.6731L6.12006 16.6499L6.22438 16.552L6.11925 16.6646L6.01574 18.534V16.7754L2.46889 20.5738H2.67753L3.2339 20.6552L2.67753 20.7943L2.46889 20.5738L1.3599 21.7615L2.99049 21.6636L1.70388 21.907L1.32138 21.8027Z" fill="#242424"/>
<path d="M50.3166 44.3009L54.5242 39.3979L60.1226 39.2588L59.4967 39.3979H54.5242L50.6644 44.2313L50.3166 44.3009Z" fill="#242424"/>
<path d="M51.2555 44.5443L57.2365 44.2313L59.7401 40.0238H60.1226L57.2365 44.2313L51.2555 44.7182V44.5443Z" fill="#242424"/>
<path d="M57.5842 45.0311L54.0026 45.3441L57.5842 44.7182L58.6969 43.2577L57.5842 45.0311Z" fill="#242424"/>
<path d="M6.15483 48.8909L6.22438 45.3441L6.43302 48.9605L6.15483 48.8909Z" fill="#242424"/>
<path d="M1.21706 44.0922L1.00842 43.7445L5.32028 44.5791L1.21706 44.0922Z" fill="#242424"/>
<path d="M60.5399 15.1958L59.6336 14.4458L60.1574 15.022L59.2533 15.3349L60.5399 15.1958Z" fill="#242424"/>
<path d="M52.6812 15.3349L52.403 14.5351L52.9246 15.1958L54.5242 15.3349H52.6812Z" fill="#242424"/>
<path d="M85.6113 38.0417L85.8895 37.381L85.7156 38.5285L85.4722 40.1629L85.6113 38.0417Z" fill="#242424"/>
<path d="M94.6175 42.7361L94.5132 43.7793L93.6091 44.8225L92.1834 46.1786L93.7829 44.44L93.8525 44.3665L93.7829 43.3272L93.6091 42.7361L92.8093 41.6233L93.7829 42.7361L93.922 43.4663V44.2931L94.4089 43.7793L94.6175 42.7361Z" fill="#242424"/>
<path d="M93.922 31.1567L92.0791 29.731L93.7829 31.1567L94.1654 32.4085L94.6175 35.3642L94.5132 33.9037L94.1654 31.9912L93.922 31.1567Z" fill="#242424"/>
<path d="M52.5073 0.104309L49.1343 0.243401H55.776L52.5073 0.104309Z" fill="#242424"/>
<path d="M85.6113 26.0102L81.056 23.9239L78.6567 22.8807L78.1698 22.669L76.6051 19.5077L78.6567 22.8807L81.056 23.9239L85.6113 26.0102L87.964 27.4037L87.7672 25.593L86.4806 22.22L87.7672 24.7584L88.3709 27.6446L87.964 27.4037L85.6113 26.0102Z" fill="#242424"/>
<path d="M4.97255 18.6731L4.59004 18.4645L4.72913 18.8122L4.59004 19.4381L3.65117 20.7943L4.59004 19.925L4.97255 19.1252V18.6731Z" fill="#242424"/>
<path d="M5.63323 45.5179L5.73755 48.8909L5.42459 48.9605L5.63323 45.5179Z" fill="#242424"/>
<path d="M2.78184 44.6834L1.53001 44.3704L1.63433 44.5791L2.78184 44.6834Z" fill="#242424"/>
<path d="M54.3851 42.0754L54.1764 43.0143L54.8719 43.2577L54.5242 42.3536L54.8719 41.9015L55.8455 41.3104L56.541 41.0322H56.0542L55.3239 41.4147L54.3851 42.0754Z" fill="#242424"/>
<path d="M57.2712 41.9363L57.2365 41.3104L57.0626 41.9015L56.7844 42.3536L56.0542 42.9099L56.6801 42.7013L57.2712 41.9363Z" fill="#242424"/>
<path d="M54.1417 12.0662L54.5242 12.2401H54.1417L53.8635 12.4487L54.0026 12.9703L54.7676 13.7006L53.8635 13.179L53.6548 12.7617V12.3097L54.1417 12.0662Z" fill="#242424"/>
<path d="M58.0362 13.944L57.6885 13.5615L57.758 14.0135L57.5494 14.1874L56.0542 14.3613L56.9235 14.4308L57.6885 14.3613L58.0362 13.944Z" fill="#242424"/>
<path d="M13.0747 56.2628L17.1084 58.384L23.437 56.8192L27.8185 53.933L28.8964 52.3682L29.3832 51.5337L31.2958 51.0468L49.1691 56.3671L60.0531 58.384H64.7127L69.6504 55.9498L73.157 52.9246M13.0747 56.2628L13.7701 54.1764L13.3876 56.2628M13.0747 56.2628H13.3876M73.157 52.9246L77.5092 49.1691L67.6336 55.4978L63.2522 56.8192L52.2291 56.2628L37.4158 52.3682L31.2958 50.3166L28.5139 51.0468L27.8185 53.168L22.3591 55.9498L18.847 56.2628H13.3876M73.157 52.9246H75.6314M51.5337 10.7101L51.325 10.9883L51.5337 11.2779V10.7101ZM51.5337 10.7101L50.5948 10.7939M51.5337 10.7101L50.4271 10.7939M50.5948 10.7939L45.1702 11.2779M50.5948 10.7939L52.2291 15.5783L50.4271 10.7939M50.4271 10.7939L47.187 11.098M45.1702 11.2779L31.2958 27.2621L47.187 11.098M45.1702 11.2779L40.0238 11.7371M47.187 11.098L40.9974 11.5078M40.0238 11.7371L41.6581 10.0842L39.7108 11.6052M40.0238 11.7371L28.9312 12.7269L12.1706 14.9872H11.3708L27.3664 12.6846M40.9974 11.5078L40.8236 11.5209M40.9974 11.5078L45.97 8.20643L47.187 7.61529L56.0889 4.04932M13.8918 52.6464L13.3876 52.5769L7.02416 50.3166L14.3961 52.7159L14.0135 52.6632M13.8918 52.6464L13.7701 53.168H14.1526L14.0135 52.6632M13.8918 52.6464L14.0135 52.6632M81.056 33.9037L80.5692 33.4864M81.056 33.9037L80.8397 38.6329M81.056 33.9037L83.5597 35.3642L86.2372 36.8942L87.1761 37.4853L83.7335 35.3642L80.5692 33.4864M80.5692 33.4864L80.3258 44.0227L79.978 45.657L80.5692 44.5443L80.8348 38.7372M80.5692 33.4864L76.8137 31.6087M80.8397 38.6329L81.8906 38.5285L83.8726 38.0417L86.1329 37.0681L85.8895 37.2767L83.5597 38.3199L81.6124 38.7372H80.8348M80.8397 38.6329L80.8348 38.7372M76.8137 31.6087L75.6314 44.0227L71.1805 49.1691L69.0593 50.9077L62.2438 53.5157L68.7811 50.4557L75.0403 44.3009L76.4312 31.6087M76.8137 31.6087H76.4312M76.8137 31.6087L71.8411 29.6266L70.4502 29.3137L73.7537 30.496L76.4312 31.6087M39.7108 11.6052L29.4876 12.3792L27.7489 12.6295M39.7108 11.6052L40.8236 11.5209M27.7489 12.6295L28.5487 11.9271L37.0333 5.668L28.34 11.6052L27.3664 12.6846M27.7489 12.6295L27.3664 12.6846M40.8236 11.5209L45.97 7.99779L58.8708 2.74706L62.2438 2.12115L64.8865 2.74706L62.0004 2.26024L59.0794 2.85138L56.5062 3.88217M56.5062 3.88217L59.2533 5.00731L64.3302 7.61529L58.0362 4.72913L56.0889 4.04932M56.5062 3.88217L56.0889 4.04932M66.7991 18.8178L67.425 18.3602L67.6336 18.4297L64.0868 21.0029L64.1911 20.7247L66.4513 19.0721M66.7991 18.8178L63.4261 15.9956M66.7991 18.8178L66.4513 19.0721M66.4513 19.0721L63.8433 16.42M63.4261 15.9956L64.504 15.9261L66.4513 16.2738L74.0666 19.0721L75.6314 21.6984L74.4839 21.2811M63.4261 15.9956L63.8433 16.42M74.4839 21.2811L74.2871 21.0029M74.4839 21.2811L69.9286 19.3338L74.2871 21.0029M63.8433 16.42L64.2258 16.2738L66.034 16.6563L72.9191 19.0721L74.2871 21.0029M1.32138 21.8027L3.96413 18.6731L6.12006 16.6499M1.32138 21.8027L1.70389 21.907L2.99049 21.6636L1.25184 21.7679M1.32138 21.8027L2.46889 20.5738M6.12006 16.6499L6.22438 16.552L6.01574 16.7754M6.12006 16.6499L6.01574 18.534V16.7754M2.46889 20.5738L6.01574 16.7754M2.46889 20.5738L2.67753 20.7943L3.2339 20.6552L2.67753 20.5738H2.46889ZM54.5242 39.3979L50.3166 44.3009L50.6644 44.2313L54.5242 39.3979ZM54.5242 39.3979L60.1226 39.2588L59.4967 39.3979H54.5242ZM57.2365 44.2313L51.2555 44.5443V44.7181L57.2365 44.2313ZM57.2365 44.2313L60.1226 40.0238H59.7401L57.2365 44.2313ZM61.0936 16.2738L60.9224 16.6563V28.6878L60.4356 39.0501H61.2006L61.5135 15.3349L61.2491 15.9261M61.0936 16.2738L53.0985 15.9261H61.2491M61.0936 16.2738L61.2491 15.9261M59.5315 14.3613L60.5399 15.1958L59.2533 15.3349L60.1574 15.022L59.4619 14.2569M75.6314 52.9246H75.2489L75.2086 52.7855M75.6314 52.9246L79.2478 52.7855L83.664 51.325L88.4974 48.9952L90.1665 47.9173L87.8089 49.1691M75.6314 52.9246L75.5132 52.7855M75.2086 52.7855L74.8664 51.6032L75.0403 52.2291L75.5132 52.7855M75.2086 52.7855H73.157M87.8089 49.1691L86.8979 48.6823L86.0286 47.3261L86.8979 48.8909L87.5794 49.2734M87.8089 49.1691L87.5794 49.2734M75.5132 52.7855L79.2478 52.5421L80.8474 52.09L83.8726 51.0468L87.3499 49.3777L87.5794 49.2734M93.922 44.2931L94.4089 43.7793L94.6175 42.7361L94.5132 43.7793L93.6091 44.8225L92.1834 46.1786L93.7829 44.44L93.8525 44.3665M93.922 44.2931V43.4663L93.7829 42.7361L92.8093 41.6233L93.6091 42.7361L93.7829 43.3272L93.8525 44.3665M93.922 44.2931L93.8525 44.3665M68.7116 27.6446L73.1277 29.1398L78.4133 31.6087L83.5597 34.4601L87.7672 36.8942L91.5575 39.6065L93.4352 41.4495M94.687 36.8247L94.8957 38.6329V40.5106L94.687 42.3188M37.6245 5.38981L45.5527 1.77342M76.2573 21.8375L78.1698 22.669M78.1698 22.669L78.6567 22.8807M78.1698 22.669L76.6051 19.5077M90.1318 28.6878L88.3709 27.6446M88.3709 27.6446L87.7672 24.7584L86.4806 22.22L87.7672 25.593L87.964 27.4037M88.3709 27.6446L87.964 27.4037M87.964 27.4037L85.6113 26.0102L81.056 23.9239L78.6567 22.8807M78.6567 22.8807L76.6051 19.5077M76.6051 19.5077L74.2871 15.9956L70.8675 12.3097L67.112 9.11053M71.8411 5.21595L77.3353 8.55416L82.2035 14.2569L85.2635 19.8902M33.0344 48.6823L36.0597 49.6559H37.9026L44.1618 50.9077L48.6127 51.6032L53.0985 52.09L58.6969 52.5769L62.6611 52.3682L65.582 51.5337M60.4356 53.5157H57.2365L53.5853 53.168L50.0037 52.7159L45.1702 51.6032M6.58045 16.353L9.73646 15.3349L8.06735 15.6826L6.50257 16.3781L6.58045 16.353ZM6.58045 16.353L6.50257 18.3254L6.12006 21.0029L6.58045 16.353ZM0.993965 22.8807L0.521601 43.3272L0.104324 40.8931L0.521601 23.2632L1.00842 22.2547L0.995127 22.8302M0.993965 22.8807L2.05162 22.7763L5.07687 21.6636L1.63434 22.6373L0.995127 22.8302M0.993965 22.8807L0.995127 22.8302M2.23605 45.6918L1.4257 44.7877L3.7555 48.0564L5.63324 49.4821L2.23605 45.6918ZM2.23605 45.6918L2.3298 45.3441L3.51208 45.6918L4.138 46.422L3.19913 45.6918L2.43412 45.5179L2.23605 45.6918ZM14.9176 52.8203L17.5604 53.168L20.9334 53.3766L23.0893 53.168M51.2555 44.2313L54.5242 40.2324L57.7928 40.0238M61.444 14.6047L63.1131 15.7522M17.1084 47.2914L34.5992 28.653L18.847 46.9784L17.1084 47.2914ZM64.2258 22.22L64.3302 23.3327L65.582 26.81L66.4513 27.6446L66.034 27.8532L65.2343 26.4971L64.1911 23.1588L64.2258 22.22ZM58.8708 45.3441L65.2343 50.9077V50.4557L58.8708 45.3441ZM64.0868 51.0468L57.9667 45.657L63.7042 51.0468H64.0868ZM74.0666 42.0754L67.0077 39.7804L74.0666 41.6233V42.0754ZM73.4755 43.4663L67.425 40.8583L73.4755 44.0227V43.4663ZM20.6552 48.0564L39.7108 45.97L50.8034 45.3441L38.3895 46.3525L20.6552 48.0564ZM6.57211 49.795L12.7269 49.1691L7.02416 49.4821L6.57211 49.795ZM63.9477 30.6698L67.2859 32.3389H67.5641L63.9477 30.6698ZM67.0425 32.7214L64.3302 31.3653V31.1914L67.0425 32.5128V32.7214ZM63.4261 30.8089L63.3217 31.3653L63.5304 31.8173L64.1911 32.1998L67.112 33.4864L63.8433 31.8173L63.5304 31.2957L63.4261 30.8089ZM67.7379 32.5128V33.0692L67.4597 33.3821L67.6336 33.0692L67.7379 32.5128ZM53.0985 11.2779L58.8708 13.5615L60.9224 14.5351L57.2712 13.1094L53.0985 11.2779ZM23.8891 52.7159L26.2189 50.3166L27.2273 49.1691L29.9744 48.4041L31.1567 48.265L28.5139 48.9257L27.2273 49.4125L23.8891 52.7159ZM54.0026 45.3441L57.5842 45.0311L58.6969 43.2577L57.5842 44.7181L54.0026 45.3441ZM6.22438 45.3441L6.15484 48.8909L6.43302 48.9605L6.22438 45.3441ZM1.00842 43.7445L1.21706 44.0922L5.32028 44.5791L1.00842 43.7445ZM52.403 14.5351L52.6812 15.3349H54.5242L52.9246 15.1958L52.403 14.5351ZM85.8895 37.381L85.6113 38.0417L85.4722 40.1629L85.7156 38.5285L85.8895 37.381ZM92.0791 29.731L93.922 31.1567L94.1654 31.9912L94.5132 33.9037L94.6175 35.3642L94.1654 32.4085L93.7829 31.1567L92.0791 29.731ZM49.1343 0.243401L52.5073 0.104309L55.776 0.243401H49.1343ZM4.59005 18.4645L4.97255 18.6731V19.1252L4.59005 19.925L3.65118 20.7943L4.59005 19.4381L4.72914 18.8122L4.59005 18.4645ZM5.73756 48.8909L5.63324 45.5179L5.4246 48.9605L5.73756 48.8909ZM1.53002 44.3704L2.78185 44.6834L1.63434 44.5791L1.53002 44.3704ZM54.1764 43.0143L54.3851 42.0754L55.3239 41.4147L56.0542 41.0322H56.541L55.8455 41.3104L54.8719 41.9015L54.5242 42.3536L54.8719 43.2577L54.1764 43.0143ZM57.2365 41.3104L57.2712 41.9363L56.6801 42.7013L56.0542 42.9099L56.7844 42.3536L57.0626 41.9015L57.2365 41.3104ZM54.5242 12.2401L54.1417 12.0662L53.6548 12.3097V12.7617L53.8635 13.179L54.7676 13.7006L54.0026 12.9703L53.8635 12.4487L54.1417 12.2401H54.5242ZM57.6885 13.5615L58.0362 13.944L57.6885 14.3613L56.9235 14.4308L56.0542 14.3613L57.5494 14.1874L57.7581 14.0135L57.6885 13.5615Z" stroke="#242424" stroke-width="0.139092"/>
</g>
<defs>
<clipPath id="clip0_261_3">
<rect width="95" height="58.4883" fill="white"/>
</clipPath>
</defs>
</svg>
