<svg width="60" height="60" viewBox="0 0 60 60" fill="none" xmlns="http://www.w3.org/2000/svg">
<path d="M10.7368 53C9.43421 53 8.31869 52.5358 7.39027 51.6074C6.46185 50.6789 5.99843 49.5642 6 48.2632V22.2105C6 20.9079 6.46421 19.7924 7.39264 18.8639C8.32106 17.9355 9.43579 17.4721 10.7368 17.4737H20.2105V12.7368C20.2105 11.4342 20.6747 10.3187 21.6032 9.39027C22.5316 8.46185 23.6463 7.99843 24.9474 8H34.4211C35.7237 8 36.8392 8.46421 37.7676 9.39264C38.6961 10.3211 39.1595 11.4358 39.1579 12.7368V17.4737H48.6316C49.9342 17.4737 51.0497 17.9379 51.9782 18.8663C52.9066 19.7947 53.37 20.9095 53.3684 22.2105V48.2632C53.3684 49.5658 52.9042 50.6813 51.9758 51.6097C51.0474 52.5382 49.9326 53.0016 48.6316 53H10.7368ZM10.7368 48.2632H48.6316V22.2105H10.7368V48.2632ZM24.9474 17.4737H34.4211V12.7368H24.9474V17.4737Z" fill="#363636"/>
</svg>
