<svg width="60" height="60" viewBox="0 0 60 60" fill="none" xmlns="http://www.w3.org/2000/svg">
<path d="M24.375 7.5C20.7937 7.5 17.8931 10.1006 17.1675 13.4775C12.795 14.2575 9.375 17.9062 9.375 22.5C9.375 22.9613 9.42563 23.3719 9.49313 23.79C8.28375 25.5675 7.5 27.6619 7.5 30C7.5 33.3694 9.17813 36.2044 11.5425 38.2612C11.3738 38.9288 11.25 39.5944 11.25 40.3125C11.25 44.9494 15.0506 48.75 19.6875 48.75H19.8056C20.8969 50.8669 22.7869 52.5 25.3125 52.5C26.1874 52.498 27.053 52.3206 27.8581 51.9782C28.6633 51.6359 29.3916 51.1356 30 50.5069C30.6084 51.1356 31.3367 51.6359 32.1419 51.9782C32.947 52.3206 33.8126 52.498 34.6875 52.5C37.215 52.5 39.1031 50.8669 40.1963 48.75H40.3125C44.715 48.75 48.3244 45.3225 48.6919 41.0156H48.75C48.75 40.8975 48.6994 40.7812 48.6919 40.6631C48.6994 40.5469 48.75 40.4287 48.75 40.3125C48.75 39.6169 48.5006 39.0225 48.3394 38.3794C50.7713 36.3131 52.5 33.4294 52.5 30C52.5 27.6637 51.7163 25.5694 50.5069 23.7881C50.5744 23.3719 50.625 22.9631 50.625 22.5C50.625 17.9062 47.205 14.2594 42.8325 13.4756C42.1069 10.1025 39.2062 7.5 35.625 7.5C33.375 7.5 31.3762 8.54813 30 10.1363C28.6238 8.55 26.625 7.5 24.375 7.5ZM24.375 11.25C26.4694 11.25 28.125 12.9056 28.125 15V18.75C28.125 21.8775 25.6275 24.375 22.5 24.375V28.125C24.6244 28.125 26.55 27.3937 28.125 26.1919V45.9375C28.125 47.5125 26.8875 48.75 25.3125 48.75C24.6565 48.7592 24.0187 48.534 23.5138 48.1151C23.009 47.6961 22.6701 47.1108 22.5581 46.4644L22.2075 44.6494L20.3906 44.9419C19.723 45.0473 19.0405 45.0064 18.3903 44.8219C17.7401 44.6374 17.1377 44.3138 16.625 43.8735C16.1123 43.4332 15.7014 42.8866 15.4208 42.2718C15.1402 41.6569 14.9966 40.9884 15 40.3125C15 39.7331 15.0938 39.1912 15.2925 38.6719C15.3075 38.6287 15.3375 38.5969 15.3506 38.5538C15.6383 37.839 16.0999 37.2074 16.6935 36.7163C17.2872 36.2251 17.994 35.89 18.75 35.7413L17.9887 32.0513C16.0751 32.4292 14.3543 33.4655 13.125 34.98C11.9059 33.6088 11.2379 31.8347 11.25 30C11.2468 28.3139 11.8264 26.6785 12.8906 25.3706L13.4775 24.6675L13.3012 23.73C13.195 23.3282 13.1359 22.9154 13.125 22.5C13.125 19.3725 15.6225 16.875 18.75 16.875H20.625V15C20.625 12.9056 22.2806 11.25 24.375 11.25ZM35.625 11.25C37.7194 11.25 39.375 12.9056 39.375 15V16.875H41.25C44.3775 16.875 46.875 19.3725 46.875 22.5C46.875 22.9031 46.8 23.2913 46.6987 23.73L46.5244 24.6675L47.1094 25.3706C48.1736 26.6785 48.7532 28.3139 48.75 30C48.75 32.25 47.79 34.2563 46.23 35.625C44.9494 34.4906 43.3162 33.75 41.4844 33.75C39.7125 33.75 38.115 34.38 36.855 35.4487L39.2587 38.3212C39.8773 37.7881 40.6677 37.4964 41.4844 37.5C43.2938 37.5 44.7356 38.8556 44.9419 40.605C44.7881 43.0744 42.8175 45 40.3125 45C40.1437 45 39.9375 44.9925 39.6094 44.9419L37.7925 44.6475L37.4419 46.4662C37.3295 47.1124 36.9905 47.6972 36.4856 48.1158C35.9808 48.5344 35.3432 48.7593 34.6875 48.75C33.1125 48.75 31.875 47.5125 31.875 45.9375V26.1919C33.4848 27.4402 35.4629 28.12 37.5 28.125V24.375C34.3725 24.375 31.875 21.8775 31.875 18.75V15C31.875 12.9056 33.5306 11.25 35.625 11.25Z" fill="#363636"/>
</svg>
