<svg width="60" height="60" viewBox="0 0 60 60" fill="none" xmlns="http://www.w3.org/2000/svg">
<path d="M41.5538 22.6057C41.235 22.6057 40.9163 22.6432 40.6163 22.6995V16.0432C40.616 15.3418 40.4583 14.6494 40.1549 14.017C39.8514 13.3847 39.4099 12.8285 38.8629 12.3894C38.3159 11.9504 37.6773 11.6397 36.9943 11.4803C36.3112 11.3208 35.6011 11.3167 34.9163 11.4682C34.722 10.3859 34.1537 9.40621 33.3107 8.70024C32.4676 7.99427 31.4034 7.60688 30.3038 7.60571C28.3163 7.60571 26.6288 8.84321 25.935 10.587C25.2385 10.3932 24.5065 10.3632 23.7965 10.4993C23.0864 10.6354 22.4174 10.9339 21.8418 11.3714C21.2663 11.809 20.7998 12.3738 20.4787 13.0216C20.1577 13.6694 19.9909 14.3827 19.9913 15.1057V16.137C19.3101 15.9979 18.6066 16.0121 17.9317 16.1785C17.2567 16.345 16.6272 16.6594 16.0888 17.0991C15.5503 17.5389 15.1164 18.0928 14.8185 18.7209C14.5206 19.349 14.3661 20.0355 14.3663 20.7307V36.6682C14.3663 45.462 21.51 52.6057 30.3038 52.6057C39.0975 52.6057 46.2413 45.462 46.2413 36.6682V27.2932C46.2413 26.05 45.7474 24.8577 44.8683 23.9786C43.9893 23.0996 42.797 22.6057 41.5538 22.6057ZM42.4913 36.6682C42.4913 39.9005 41.2072 43.0005 38.9216 45.2861C36.636 47.5717 33.5361 48.8557 30.3038 48.8557C27.0714 48.8557 23.9715 47.5717 21.6859 45.2861C19.4003 43.0005 18.1163 39.9005 18.1163 36.6682V20.7307C18.1163 20.2057 18.5288 19.7932 19.0538 19.7932C19.5788 19.7932 19.9913 20.2057 19.9913 20.7307V30.1057H23.7413V15.1057C23.7413 14.5807 24.1538 14.1682 24.6788 14.1682C25.2038 14.1682 25.6163 14.5807 25.6163 15.1057V28.2307H29.3663V12.2932C29.3663 11.7682 29.7788 11.3557 30.3038 11.3557C30.8288 11.3557 31.2413 11.7682 31.2413 12.2932V28.2307H34.9913V16.0432C34.9913 15.5182 35.4038 15.1057 35.9288 15.1057C36.4538 15.1057 36.8663 15.5182 36.8663 16.0432V32.7682C33.5475 34.212 31.2413 37.512 31.2413 41.3557H34.9913C34.9913 38.2432 37.5038 35.7307 40.6163 35.7307V27.2932C40.6163 26.7682 41.0288 26.3557 41.5538 26.3557C42.0788 26.3557 42.4913 26.7682 42.4913 27.2932V36.6682Z" fill="#363636"/>
</svg>
