<svg width="60" height="60" viewBox="0 0 60 60" fill="none" xmlns="http://www.w3.org/2000/svg">
<path d="M26.25 36.25V38.75C26.25 39.7917 26.615 40.6775 27.345 41.4075C28.075 42.1375 28.96 42.5017 30 42.5C31.0417 42.5 31.9275 42.135 32.6575 41.405C33.3875 40.675 33.7517 39.79 33.75 38.75V36.25H36.25C37.2917 36.25 38.1775 35.885 38.9075 35.155C39.6375 34.425 40.0017 33.54 40 32.5C40 31.4583 39.635 30.5725 38.905 29.8425C38.175 29.1125 37.29 28.7483 36.25 28.75H33.75V26.25C33.75 25.2083 33.385 24.3225 32.655 23.5925C31.925 22.8625 31.04 22.4983 30 22.5C28.9583 22.5 28.0725 22.865 27.3425 23.595C26.6125 24.325 26.2483 25.21 26.25 26.25V28.75H23.75C22.7083 28.75 21.8225 29.115 21.0925 29.845C20.3625 30.575 19.9983 31.46 20 32.5C20 33.5417 20.365 34.4275 21.095 35.1575C21.825 35.8875 22.71 36.2517 23.75 36.25H26.25ZM15 52.5C13.625 52.5 12.4475 52.01 11.4675 51.03C10.4875 50.05 9.99834 48.8733 10 47.5V25C10 24.2083 10.1775 23.4583 10.5325 22.75C10.8875 22.0417 11.3767 21.4583 12 21L27 9.75C27.875 9.08333 28.875 8.75 30 8.75C31.125 8.75 32.125 9.08333 33 9.75L48 21C48.625 21.4583 49.115 22.0417 49.47 22.75C49.825 23.4583 50.0017 24.2083 50 25V47.5C50 48.875 49.51 50.0525 48.53 51.0325C47.55 52.0125 46.3733 52.5017 45 52.5H15ZM15 47.5H45V25L30 13.75L15 25V47.5Z" fill="#363636"/>
</svg>
