<svg width="252" height="406" viewBox="0 0 252 406" fill="none" xmlns="http://www.w3.org/2000/svg">
<path fill-rule="evenodd" clip-rule="evenodd" d="M109.588 1.97763C103.572 3.04062 92.4484 4.77894 84.8684 5.84062C77.2884 6.90274 64.5895 9.05316 56.6486 10.6195C48.7076 12.1854 39.1645 14.0638 35.4417 14.7937C31.7189 15.5232 26.5015 16.6377 23.8475 17.2703C19.1543 18.3887 18.9324 18.497 15.7508 21.2145C13.9518 22.7511 11.5371 25.1709 10.3847 26.5918C8.35635 29.0932 8.23603 29.4071 6.58572 36.5036C4.99753 43.3338 4.84484 44.5898 4.3452 54.9643C4.04987 61.0868 3.90899 70.3198 4.0315 75.4819C4.266 85.3352 4.42395 86.307 7.43888 96.4361C8.62542 100.423 9.96116 101.383 16.884 103.224L22.3184 104.669L71.8597 97.2695C99.1074 93.1996 125.924 89.1829 131.451 88.3443L141.501 86.819L146.914 83.4423L152.327 80.0657L155.085 75.4431L157.844 70.8201L159.857 61.3409L161.871 51.8617V37.9935C161.871 26.3814 161.757 23.7888 161.166 22.0592C160.778 20.9228 160.532 19.924 160.619 19.8393C161.054 19.4168 169.016 27.224 171.064 30.0811C172.355 31.8819 174.424 34.6321 175.663 36.1928C176.901 37.7534 179.622 41.5889 181.708 44.7159C185.142 49.8624 185.563 50.7245 186.156 53.8127C186.518 55.702 186.81 59.6475 186.81 62.6562C186.81 66.1756 187.015 68.5832 187.391 69.4934C187.891 70.7035 187.803 72.5942 186.752 83.1215C186.081 89.8443 185.524 95.4923 185.515 95.6722C185.505 95.852 185.692 95.9996 185.929 95.9996C186.166 95.9996 186.926 94.8702 187.617 93.4894C188.703 91.3233 188.949 90.1119 189.418 84.6494C189.717 81.1679 190.089 77.7886 190.245 77.1404L190.529 75.9608L194.973 78.4256C200.767 81.639 200.81 81.7272 200.81 90.3546V96.9032L196.9 101.363C193.435 105.313 192.574 106.032 189.353 107.663C187.352 108.676 181.635 111.672 176.648 114.321L167.579 119.137H161.734C154.656 119.137 147.736 117.963 135.693 114.721C131.201 113.511 125.601 112.013 123.248 111.392C119.212 110.326 118.058 109.495 120.176 109.182C120.668 109.11 128.779 110.141 138.2 111.474C160.123 114.576 163.492 114.659 171.437 112.293L176.846 110.683L178.81 107.737C179.89 106.116 180.647 104.587 180.494 104.339C180.33 104.075 179.133 104.757 177.611 105.98C175.529 107.654 174.097 108.358 170.452 109.497C164.307 111.417 160.843 111.401 143.714 109.373C136.255 108.49 128.183 107.56 125.776 107.306C123.37 107.052 120.29 106.565 118.932 106.224C117.573 105.883 114.906 105.604 113.004 105.604C109.718 105.604 109.178 105.452 102.129 102.539L94.7125 99.4741L90.5561 100.183C86.7677 100.83 86.083 101.106 82.8191 103.307L79.2384 105.722L77.5689 109.854L75.8993 113.986L68.6435 117.619C57.5822 123.157 41.3057 129.13 37.1734 129.167C36.2559 129.175 34.8541 127.616 28.7149 119.755C24.6674 114.572 21.4215 110.271 21.5015 110.196C21.5816 110.121 23.8129 109.529 26.4599 108.88C31.1645 107.727 35.8665 105.805 35.8665 105.036C35.8665 104.61 33.6024 104.752 26.6787 105.611C22.4028 106.142 21.7977 106.119 17.9358 105.267C15.6541 104.763 13.7295 104.409 13.6591 104.479C13.5886 104.55 18.4437 110.733 24.4487 118.219L35.3664 131.831L40.9562 135.852L46.5463 139.872L49.7087 145.305C51.4483 148.293 53.2521 151.044 53.7172 151.417C54.4203 151.981 54.7463 153.532 55.651 160.614C56.6158 168.166 57.0787 170.258 59.7331 179.058C62.3831 187.844 63.4301 190.471 63.4301 188.333C63.4301 187.974 61.5654 178.276 59.2859 166.782C57.0065 155.287 54.8884 143.842 54.5791 141.349L54.0169 136.817L50.3011 136.588C47.0145 136.385 46.1062 136.125 42.4293 134.334C38.8661 132.599 38.4702 132.304 39.6559 132.271C40.4167 132.25 44.3544 130.935 48.4062 129.348C59.9251 124.838 72.7068 120.01 73.1263 120.01C73.3363 120.01 73.0183 120.974 72.4197 122.152C71.4485 124.065 70.5498 124.826 64.0417 129.246C60.0319 131.969 56.236 134.623 55.6064 135.142C53.3646 136.992 55.2008 136.731 59.3629 134.607C64.4736 132 79.6812 120.507 80.1165 118.923C80.2705 118.363 80.5352 116.464 80.705 114.701C80.9754 111.889 81.3083 110.99 83.4229 107.35C84.7477 105.069 85.9241 103.107 86.0366 102.991C86.1486 102.874 88.3436 102.576 90.914 102.328L95.5876 101.876L99.3065 103.57C102.699 105.116 105.459 107.038 104.971 107.514C104.863 107.62 103.069 107.064 100.983 106.279L97.1915 104.854L96.7238 106.708C95.8212 110.283 97.2388 111.824 104.016 114.634L106.32 115.589L107.44 113.384C108.499 111.299 108.593 111.225 109.166 112.041C109.75 112.873 109.915 112.882 113.681 112.288L117.589 111.672L135.183 117.151L152.777 122.629H160.575H168.374L177.264 119.516C185.607 116.595 186.289 116.273 188.355 114.277C189.566 113.108 190.678 112.152 190.827 112.152C190.976 112.152 190.727 113.576 190.274 115.317C189.56 118.06 189.451 120.139 189.455 130.923C189.459 138.491 189.708 145.844 190.091 149.695C191.186 160.692 191.837 158.617 183.34 171.219C179.266 177.262 176.002 182.275 176.087 182.359C176.171 182.444 179.887 181.698 184.343 180.703C192.111 178.968 194.331 178.788 195.915 179.765C196.279 179.99 195.535 182.16 193.37 187.181L190.31 194.279V221.218V248.156L194.071 257.968C196.14 263.365 197.988 267.879 198.176 267.999C198.365 268.119 199.123 269.949 199.861 272.066C200.8 274.758 201.096 276.202 200.845 276.868C200.648 277.392 199.557 282.83 198.422 288.953C196.536 299.119 195.717 302.049 194.759 302.049C194.57 302.049 193.741 297.531 192.916 292.009C191.868 284.99 191.251 281.968 190.863 281.968C190.559 281.968 190.31 282.148 190.31 282.369C190.31 282.59 188.832 289.996 187.027 298.827C183.275 317.175 183.815 315.954 177.958 319.324C176.089 320.4 174.559 321.472 174.559 321.706C174.559 322.336 174.746 322.279 180.745 319.816L186.275 317.547L193.98 309.287L201.685 301.028V289.883C201.685 283.485 201.849 278.915 202.068 279.152C202.279 279.38 203.165 281.729 204.037 284.37L205.623 289.173V304.274V319.375L200.543 331.994C197.749 338.934 192.136 352.851 188.069 362.921C184.002 372.99 180.832 381.386 181.024 381.577C181.216 381.769 186.23 371.959 192.167 359.777C198.104 347.595 205.166 333.11 207.86 327.587L212.758 317.547L211.165 303.06L209.572 288.574L204.485 276.649C201.687 270.091 198.734 263.166 197.923 261.262C197.112 259.357 196.514 257.734 196.594 257.654C196.674 257.574 198.787 260.2 201.291 263.488C205.625 269.182 206.044 269.593 210.087 272.116C212.422 273.573 217.348 277.351 221.034 280.511C226.596 285.281 227.817 286.543 228.217 287.933C228.482 288.854 231.244 297.087 234.355 306.228L240.011 322.848L236.606 328.273C234.733 331.257 233.136 333.885 233.055 334.113C232.975 334.341 228.359 332.131 222.798 329.202C208.435 321.638 208.109 321.897 220.938 330.677C227.126 334.911 229.932 337.099 230.578 338.19L231.488 339.73L237.369 330.935C240.603 326.098 243.249 321.954 243.249 321.728C243.249 321.501 241.084 314.887 238.437 307.03C235.79 299.173 233.624 292.698 233.624 292.64C233.624 292.582 235.15 292.878 237.015 293.298C238.88 293.717 242.922 295.171 245.998 296.527C252.12 299.227 252 299.186 252 298.55C252 298.306 249.678 296.576 246.841 294.706C242.815 292.051 240.589 290.927 236.708 289.583C232.774 288.221 231.584 287.615 231.014 286.684C230.617 286.037 226.367 282.555 221.567 278.946L212.842 272.386L203.843 261.465L194.844 250.545L194.324 234.061C194.038 224.995 193.678 212.956 193.522 207.308L193.24 197.039L202.1 191.225L210.96 185.41L210.614 183.377C210.423 182.259 210.236 180.69 210.197 179.889C210.139 178.66 209.829 178.261 208.204 177.32C207.145 176.708 205.251 175.213 203.993 173.999C202.736 172.785 201.566 171.932 201.395 172.103C201.223 172.274 201.523 173.318 202.06 174.422C202.598 175.526 202.978 176.489 202.906 176.562C202.833 176.634 201.569 176.971 200.099 177.311C197.576 177.892 197.255 177.87 194.414 176.926C192.05 176.14 191.052 175.523 189.764 174.051C188.863 173.02 188.124 171.944 188.124 171.659C188.123 171.374 188.753 169.533 189.525 167.567C190.933 163.976 191.02 163.929 191.772 166.342C191.96 166.947 198.623 169.64 198.623 169.111C198.623 169.018 197.554 165.545 196.249 161.392L193.875 153.842L193.143 143.409C192.456 133.602 192.456 132.464 193.163 124.42L193.914 115.862L196.25 111.279C197.535 108.758 199.644 105.029 200.938 102.992C203.288 99.2903 203.291 99.2881 206.972 97.696C208.997 96.8199 210.703 96.1454 210.763 96.1965C210.823 96.248 209.364 99.3186 207.52 103.02C204.439 109.207 204.033 110.348 202.489 117.145C200.848 124.371 200.81 124.733 200.81 133.184C200.81 138.799 201.124 144.853 201.706 150.455L202.603 159.08L205.535 165.572L208.467 172.064L212.126 175.238L215.785 178.412L219.975 177.01C224.45 175.513 225.589 174.578 222.936 174.578C221.791 174.578 220.511 174.014 218.231 172.504L215.098 170.431L212.323 164.595L209.548 158.76L208.651 147.162L207.754 135.563L208.666 125.058L209.578 114.553L212.365 106.913L215.153 99.2737L219.195 97.6864L223.237 96.0987L220.873 94.5895C219.572 93.7597 215.954 90.8265 212.831 88.0715C209.709 85.3164 205.875 82.2017 204.31 81.1505C202.746 80.0988 200.027 78.0995 198.268 76.7073C196.509 75.3147 193.82 73.4385 192.292 72.537L189.515 70.8982L189.214 64.5683C189.048 61.0868 188.655 56.352 188.339 54.0462C187.83 50.319 187.51 49.3992 185.455 45.7518C182.273 40.1029 180.668 37.6766 178.302 34.9364C177.188 33.6455 176.356 32.5083 176.456 32.4092C177.003 31.8627 189.162 37.3195 194.376 40.4522C197.741 42.4743 197.9 42.6537 206.68 54.2985C212.583 62.1275 216.633 67.9838 218.72 71.7076L221.865 77.3189L222.288 84.1491C222.522 87.9056 223.002 91.9794 223.356 93.2022C223.947 95.2417 224.148 95.4696 225.792 95.9607C226.778 96.2554 227.628 96.4339 227.681 96.3571C227.735 96.2807 227.519 92.5836 227.201 88.1418C226.883 83.6999 226.673 79.1563 226.733 78.0453L226.843 76.025L231.541 78.7001L236.239 81.3753L237.109 83.9946C237.943 86.5073 239.21 96.6837 238.746 97.1464C238.623 97.2695 237.556 96.9556 236.376 96.4488C234.265 95.543 234.199 95.5408 232.341 96.3279L230.453 97.1281L232.257 97.9396C233.25 98.3862 234.062 98.8804 234.062 99.0375C234.062 99.1951 232.865 99.7059 231.402 100.173L228.743 101.022L224.84 111.467L220.936 121.913L220.937 132.202C220.938 141.86 221.007 142.746 222.056 146.639C222.67 148.92 223.669 152.641 224.276 154.908C225.429 159.216 229.231 166.283 230.397 166.283C230.713 166.283 230.886 166.038 230.782 165.738C230.25 164.203 226.437 150.739 224.685 144.207C222.763 137.041 222.686 136.52 222.689 130.674L222.692 124.593L225.247 116.736C227.656 109.326 227.995 108.597 231.182 103.953L234.561 99.0292L238.081 100.898C242.798 103.402 243.957 105.152 246.106 113.025C247.839 119.371 247.957 119.69 248.445 119.389C248.622 119.28 248.429 116.674 248.017 113.598C247.374 108.798 247.004 107.447 245.411 104.076C243.921 100.923 243.229 98.5525 241.906 92.0707C240.999 87.6288 239.897 82.9368 239.457 81.6442L238.656 79.2934L232.968 77.1246C229.84 75.9316 226.518 74.9266 225.586 74.8913L223.892 74.8271L220.117 68.4479C218.041 64.9393 213.711 58.3946 210.496 53.9043C204.948 46.1543 204.366 45.5017 199.049 41.0677C195.969 38.4978 192.693 36.1256 191.77 35.7951C190.847 35.4651 187.433 34.0878 184.185 32.7349C178.592 30.4051 177.766 29.8904 168.63 23.0322C159.968 16.5299 158.929 15.6149 158.468 14.0787C157.771 11.7576 154.548 7.44755 154.196 8.36473C154.053 8.73667 154.621 11.2245 155.459 13.8936L156.982 18.7462L156.578 32.5991C156.199 45.603 156.079 46.9833 154.614 55.1284L153.055 63.8048L149.697 69.2594L146.34 74.7136L141.448 77.6991L136.556 80.6842L128.541 82.2095C121.697 83.5118 97.605 87.0535 30.9471 96.5557L17.9336 98.4111L13.9719 97.5327C10.3597 96.7317 9.92835 96.5252 9.08306 95.1872C8.57292 94.3804 7.6747 91.8266 7.08667 89.5121C6.17664 85.9285 5.98545 83.9439 5.79906 76.1367C5.67831 71.0946 5.81175 62.2546 6.09482 56.4922C6.57216 46.7729 6.73579 45.4799 8.3546 38.6174L10.0994 31.2197L12.9997 27.9862C15.9171 24.7339 18.5251 22.5874 22.5984 20.0869C25.0428 18.586 21.7107 19.2125 65.706 11.9824C78.1477 9.93804 90.1575 7.8579 92.3946 7.3598C94.632 6.8617 103.55 5.28926 112.213 3.86569C120.876 2.44168 128.603 1.16783 129.386 1.03512C130.168 0.901978 130.808 0.605563 130.808 0.376376C130.808 0.132784 128.67 -0.0226266 125.667 0.0026931C121.668 0.0358706 118.097 0.474599 109.588 1.97763ZM85.6511 108.769C83.6762 111.195 82.7998 115.073 83.7934 116.99C84.1561 117.69 84.5306 118.263 84.6251 118.263C84.7197 118.263 85.2499 117.527 85.8034 116.626C86.3564 115.726 87.6694 114.067 88.7203 112.94L90.6309 110.89L89.2602 108.902C88.5059 107.808 87.7254 106.913 87.525 106.913C87.3251 106.913 86.482 107.748 85.6511 108.769ZM248.937 125.825C248.937 128.037 245.847 148.265 244.531 154.669L242.728 163.446L240.254 165.74C238.894 167.001 236.356 168.867 234.614 169.887C232.872 170.906 231.445 171.887 231.442 172.068C231.426 172.999 235.469 172.264 239.312 170.637L243.468 168.877L245.093 163.761C247.515 156.134 249.812 140.753 249.812 132.168C249.812 128.137 249.647 125.685 249.375 125.685C249.134 125.685 248.937 125.748 248.937 125.825ZM94.275 128.837C91.2715 130.153 91.1472 130.17 87.8199 129.694L84.4274 129.209L81.4925 131.398C78.6627 133.509 78.4133 133.855 74.5093 141.095C72.2824 145.225 70.4535 148.749 70.4452 148.927C70.4374 149.105 71.2669 148.931 72.2898 148.54C73.5459 148.059 75.7812 146.238 79.1807 142.925L84.2121 138.022L89.0686 137.082L93.925 136.143L100.006 137.209C103.351 137.795 109.137 139.182 112.865 140.292C117.979 141.816 120.208 142.28 121.948 142.183L124.255 142.055L117.14 137.638C111.182 133.938 98.5382 127.352 97.6067 127.463C97.4588 127.481 95.9595 128.099 94.275 128.837ZM89.8999 147.681L85.5247 148.167L88.1292 150.035C89.5621 151.062 91.0055 151.799 91.3371 151.672C91.6687 151.545 92.4208 151.441 93.008 151.441C94.0409 151.441 97.9939 148.282 97.9939 147.457C97.9939 146.984 95.5688 147.051 89.8999 147.681ZM206.061 178.741C206.061 178.87 205.032 180.256 203.774 181.822C201.591 184.541 198.858 186.745 198.328 186.216C198.191 186.08 198.219 184.67 198.388 183.085C198.671 180.455 198.781 180.214 199.645 180.337C200.422 180.448 200.571 180.726 200.48 181.89C200.42 182.671 200.555 183.309 200.782 183.309C201.009 183.309 201.946 182.231 202.862 180.913C203.799 179.567 204.865 178.515 205.295 178.512C205.716 178.509 206.061 178.612 206.061 178.741ZM158.809 189.69C144.658 192.383 146.581 192.323 126.214 190.717C120.198 190.243 111.535 189.56 106.963 189.2C102.391 188.839 95.2564 188.546 91.1087 188.546L83.5677 188.547L76.742 192.791C72.9881 195.125 70.0817 197.082 70.2829 197.141C83.4285 200.95 89.0834 202.657 89.3166 202.886C89.4772 203.043 89.9952 212.382 90.4682 223.639L91.3279 244.107L89.8089 248.633C88.9736 251.122 88.1598 253.084 88.001 252.991C87.8422 252.899 86.3617 252.003 84.7109 251C83.0602 249.998 81.6496 249.238 81.5761 249.311C80.9461 249.945 78.3057 255.159 78.3057 255.769C78.3057 256.2 79.977 266.249 82.0197 278.1C84.0625 289.952 86.237 302.595 86.8517 306.196C88.9824 318.676 87.3399 315.485 103.496 338.531C111.419 349.832 123.807 367.532 131.026 377.864L144.152 396.649L148.931 400.316C156.622 406.216 157.913 406.774 160.525 405.33L161.585 404.745L160.628 404.441C160.102 404.274 159.774 403.971 159.9 403.768C160.027 403.564 162.884 402.481 166.251 401.362L172.372 399.327V394.267V389.207L168.764 392.666C166.78 394.568 164.959 396.333 164.717 396.586C164.475 396.84 162.861 398.384 161.13 400.018L157.983 402.987L155.258 400.866C152.607 398.802 143.269 386.595 98.8274 327.103L93.2482 319.635L91.4272 308.187C90.4253 301.891 89.6977 296.649 89.8097 296.537C90.0057 296.341 94.821 300.777 103.682 309.315C107.64 313.129 108.088 313.424 113.088 315.508C115.976 316.712 124.129 320.165 131.206 323.182L144.074 328.666L150.238 328.028C153.629 327.677 161.324 326.891 167.34 326.282C180.744 324.924 181.997 324.751 181.997 324.263C181.997 324.045 173.833 323.877 163.196 323.877H144.396L134.916 319.643L125.435 315.408L122.98 311.546C111.904 294.12 106.62 286.097 106.149 285.99C105.632 285.873 106.159 293.667 107.42 304.778C107.61 306.445 107.548 307.288 107.237 307.288C106.981 307.288 102.649 303.178 97.6115 298.155C91.2903 291.851 88.3738 288.639 88.1962 287.787C88.0548 287.108 87.2485 282.132 86.4041 276.73C85.5597 271.327 84.6518 265.693 84.3871 264.208C83.87 261.31 84.0765 260.463 85.2512 260.661C86.475 260.868 90.27 257.34 91.0755 255.246C91.4718 254.216 92.777 250.998 93.9762 248.094L96.1568 242.813L95.7775 239.144C94.3586 225.433 92.297 203.69 92.4055 203.582C92.4768 203.51 97.3407 203.996 103.213 204.661L113.892 205.869L130.772 203.114C140.056 201.599 151.63 199.469 156.492 198.382C161.354 197.295 165.434 196.405 165.557 196.405C165.681 196.405 166.454 197.453 167.275 198.733L168.767 201.061L169.79 212.247L170.812 223.432L169.221 236.439C167.918 247.089 167.693 250.078 167.976 252.938C168.166 254.859 168.465 258.739 168.64 261.56C168.885 265.516 169.098 266.689 169.571 266.689C169.908 266.689 170.184 266.289 170.184 265.8C170.184 265.311 170.673 260.154 171.27 254.34C171.867 248.527 172.945 238.042 173.664 231.041L174.972 218.311L173.896 203.102C173.304 194.737 172.818 187.745 172.815 187.565C172.806 187.054 172.068 187.167 158.809 189.69ZM63.6405 266.857C60.2104 268.419 58.295 269.818 48.9837 277.566C43.0926 282.467 38.2099 286.524 38.1333 286.581C38.0563 286.638 38.2457 287.088 38.5542 287.581C38.8626 288.074 39.0101 288.581 38.8828 288.708C38.755 288.836 35.0217 290.572 30.5861 292.567C26.151 294.562 17.3819 298.543 11.0996 301.413C-0.262731 306.606 -0.320921 306.639 0.135409 307.724C0.387418 308.325 0.720369 308.969 0.875249 309.158C1.22483 309.582 3.53929 308.535 19.4596 300.749C34.785 293.254 39.7565 291.024 40.5051 291.311C41.675 291.759 42.5343 294.498 43.7834 301.765C44.4913 305.883 46.16 315.637 47.4918 323.44C48.8232 331.243 50.0622 338.217 50.2455 338.937C50.5741 340.232 50.6835 340.275 59.52 342.609C64.4377 343.908 68.518 345.012 68.5871 345.063C68.6562 345.113 66.6489 350.926 64.1262 357.98C61.6035 365.034 59.6762 370.931 59.8438 371.085C60.2576 371.465 118.092 404.655 118.839 404.941C119.165 405.065 119.432 404.966 119.432 404.719C119.432 404.473 114.953 401.051 109.479 397.115C104.005 393.178 92.1916 384.687 83.2277 378.245C74.2643 371.804 66.9302 366.362 66.9302 366.153C66.9302 365.943 71.2616 356.263 76.5556 344.642C81.8495 333.02 86.181 323.299 86.181 323.039C86.181 322.78 86.0331 322.575 85.8528 322.585C85.6726 322.594 81.8854 327.411 77.4372 333.288C72.9885 339.164 69.1427 343.893 68.8903 343.797C67.6674 343.328 53.9815 333.316 53.6971 332.681C53.3751 331.964 43.8578 289.453 43.6368 287.745C43.5506 287.079 46.3153 284.481 55.1173 276.957C68.619 265.415 67.9523 266.021 67.7466 265.481C67.6587 265.25 65.8106 265.869 63.6405 266.857ZM196.403 317.923C195.338 318.742 192.99 321.211 191.185 323.409C188.489 326.692 187.044 327.978 183.091 330.613C178.175 333.891 175.922 335.858 176.465 336.401C176.711 336.647 188.301 331.25 190.779 329.735C191.85 329.08 199.132 317.225 198.717 316.812C198.505 316.599 197.492 317.086 196.403 317.923Z" fill="black"/>
</svg>
