<svg width="208" height="341" viewBox="0 0 208 341" fill="none" xmlns="http://www.w3.org/2000/svg">
<path fill-rule="evenodd" clip-rule="evenodd" d="M117.546 1.66101C122.512 2.55382 131.693 4.01384 137.95 4.90555C144.206 5.79762 154.688 7.60377 161.242 8.91933C167.797 10.2345 175.674 11.8122 178.747 12.4253C181.819 13.038 186.126 13.974 188.316 14.5053C192.19 15.4447 192.373 15.5356 194.999 17.8181C196.484 19.1087 198.477 21.1411 199.429 22.3345C201.103 24.4355 201.202 24.6991 202.564 30.6594C203.875 36.3961 204.001 37.451 204.413 46.1646C204.657 51.3069 204.774 59.0617 204.672 63.3974C204.479 71.6732 204.348 72.4893 201.86 80.9968C200.881 84.3455 199.778 85.1518 194.064 86.698L189.578 87.912L148.687 81.6968C126.197 78.2785 104.063 74.9049 99.5009 74.2005L91.2055 72.9194L86.7377 70.0833L82.2698 67.2473L79.9929 63.3647L77.7164 59.4819L76.0541 51.5203L74.3919 43.5587V31.9108C74.3919 22.1578 74.4865 19.9802 74.974 18.5275C75.2943 17.5731 75.4977 16.7342 75.4254 16.6631C75.0665 16.3082 68.4944 22.8654 66.8043 25.2652C65.739 26.7777 64.0308 29.0876 63.0085 30.3984C61.9862 31.7092 59.7407 34.9306 58.0185 37.557C55.1844 41.8795 54.8366 42.6036 54.3476 45.1973C54.0486 46.7842 53.8078 50.098 53.8078 52.625C53.8078 55.581 53.6388 57.6031 53.3282 58.3676C52.9154 59.384 52.9884 60.972 53.8554 69.8139C54.409 75.4603 54.8687 80.2041 54.8767 80.3552C54.8846 80.5063 54.7308 80.6302 54.5351 80.6302C54.3393 80.6302 53.7121 79.6817 53.1415 78.5219C52.2455 76.7026 52.0419 75.6851 51.6551 71.0971C51.4084 68.1731 51.1011 65.3348 50.9726 64.7903L50.7382 63.7996L47.0703 65.8697C42.2872 68.5687 42.2518 68.6428 42.2518 75.889V81.3892L45.4795 85.1346C48.3392 88.4524 49.0499 89.0563 51.7089 90.4265C53.36 91.2768 58.0788 93.7931 62.1956 96.018L69.6807 100.063H74.5053C80.3472 100.063 86.0591 99.0774 95.9991 96.3542C99.7067 95.3382 104.329 94.0802 106.271 93.5581C109.603 92.6627 110.556 91.9654 108.807 91.7021C108.401 91.6412 101.706 92.5073 93.9302 93.627C75.8349 96.2328 73.0543 96.3025 66.4962 94.3152L62.0317 92.9626L60.4109 90.4881C59.5197 89.1271 58.8942 87.8427 59.021 87.6344C59.156 87.4126 60.1444 87.9853 61.4004 89.013C63.119 90.4192 64.301 91.0098 67.3095 91.9664C72.3815 93.579 75.2405 93.5658 89.3786 91.8627C95.5358 91.1209 102.199 90.3396 104.185 90.1262C106.171 89.9128 108.713 89.504 109.834 89.2176C110.955 88.9309 113.157 88.6966 114.727 88.6966C117.439 88.6966 117.885 88.569 123.703 86.1223L129.825 83.5484L133.255 84.1438C136.382 84.6869 136.947 84.919 139.641 86.768L142.597 88.796L143.975 92.2667L145.353 95.7371L151.342 98.7881C160.472 103.44 173.906 108.456 177.317 108.488C178.074 108.495 179.232 107.184 184.299 100.582C187.64 96.2295 190.319 92.6169 190.253 92.5538C190.187 92.4911 188.345 91.9939 186.16 91.4487C182.277 90.48 178.396 88.8656 178.396 88.2196C178.396 87.8621 180.265 87.9813 185.98 88.7032C189.509 89.1491 190.008 89.1293 193.196 88.4136C195.079 87.9908 196.668 87.6934 196.726 87.7525C196.784 87.8115 192.777 93.0044 187.82 99.2926L178.809 110.725L174.195 114.102L169.581 117.479L166.971 122.042C165.535 124.552 164.046 126.862 163.662 127.175C163.082 127.649 162.813 128.951 162.066 134.9C161.27 141.243 160.887 143 158.697 150.391C156.509 157.771 155.645 159.977 155.645 158.181C155.645 157.88 157.184 149.734 159.066 140.08C160.947 130.426 162.695 120.813 162.951 118.719L163.415 114.912L166.482 114.72C169.194 114.55 169.944 114.332 172.979 112.828C175.92 111.37 176.247 111.122 175.268 111.095C174.64 111.077 171.39 109.973 168.046 108.64C158.538 104.852 147.988 100.796 147.642 100.796C147.468 100.796 147.731 101.606 148.225 102.596C149.027 104.202 149.768 104.841 155.14 108.554C158.45 110.841 161.583 113.07 162.103 113.506C163.953 115.06 162.437 114.84 159.002 113.057C154.784 110.867 142.231 101.214 141.872 99.8836C141.745 99.4136 141.526 97.8179 141.386 96.3377C141.163 93.9757 140.888 93.2204 139.143 90.1632C138.05 88.2475 137.078 86.6001 136.986 86.5022C136.893 86.4043 135.081 86.1539 132.96 85.9452L129.102 85.5657L126.033 86.9887C123.233 88.2867 120.954 89.9011 121.357 90.3015C121.446 90.3898 122.927 89.9231 124.649 89.2642L127.778 88.0667L128.164 89.6243C128.909 92.6272 127.739 93.9215 122.145 96.2813L120.244 97.0835L119.319 95.2311C118.446 93.4804 118.368 93.4184 117.895 94.1037C117.413 94.8018 117.277 94.8095 114.168 94.3112L110.942 93.7939L96.4201 98.395L81.8982 102.996H75.4615H69.0248L61.6871 100.382C54.8009 97.9279 54.2379 97.6577 52.5326 95.9817C51.533 94.9998 50.6151 94.1964 50.4919 94.1964C50.3691 94.1964 50.5746 95.3925 50.9487 96.8547C51.5381 99.1588 51.628 100.905 51.624 109.963C51.6212 116.319 51.4157 122.495 51.0993 125.729C50.1954 134.965 49.6584 133.223 56.6715 143.807C60.0343 148.882 62.7286 153.093 62.6586 153.163C62.5889 153.235 59.5222 152.609 55.8441 151.773C49.432 150.316 47.6 150.165 46.2928 150.985C45.9916 151.174 46.6058 152.997 48.3927 157.214L50.9188 163.175V185.801V208.427L47.8142 216.668C46.1064 221.2 44.5817 224.992 44.4261 225.092C44.2705 225.193 43.6443 226.731 43.035 228.509C42.2604 230.769 42.0163 231.983 42.2232 232.542C42.3861 232.982 43.286 237.55 44.2235 242.692C45.7796 251.23 46.456 253.692 47.2468 253.692C47.4029 253.692 48.0872 249.897 48.7675 245.259C49.6324 239.363 50.1423 236.825 50.4619 236.825C50.7133 236.825 50.9188 236.977 50.9188 237.162C50.9188 237.348 52.1383 243.568 53.6286 250.985C56.7253 266.396 56.2793 265.37 61.1137 268.201C62.6568 269.105 63.9193 270.005 63.9193 270.201C63.9193 270.73 63.7651 270.682 58.8137 268.614L54.2494 266.708L47.8896 259.771L41.5295 252.834V243.473C41.5295 238.1 41.3948 234.261 41.2135 234.461C41.0395 234.652 40.3082 236.624 39.5885 238.843L38.2794 242.877V255.56V268.244L42.4724 278.842C44.7786 284.671 49.4118 296.36 52.7684 304.818C56.1251 313.275 58.7418 320.327 58.5836 320.487C58.4251 320.648 54.2863 312.409 49.3858 302.177C44.4857 291.945 38.6568 279.779 36.4333 275.141L32.3902 266.708L33.7054 254.541L35.0202 242.374L39.219 232.358C41.5284 226.849 43.9657 221.034 44.6348 219.434C45.304 217.835 45.7976 216.471 45.7319 216.404C45.6658 216.337 43.9216 218.542 41.8553 221.304C38.2779 226.086 37.9316 226.432 34.5948 228.551C32.6679 229.774 28.602 232.948 25.5595 235.602C20.9681 239.608 19.9602 240.668 19.6302 241.835C19.4113 242.609 17.1316 249.523 14.564 257.201L9.89607 271.16L12.7063 275.717C14.252 278.223 15.5704 280.431 15.6369 280.622C15.7029 280.813 19.5128 278.957 24.1034 276.497C35.9581 270.145 36.2278 270.362 25.6386 277.736C20.5312 281.292 18.2146 283.13 17.6819 284.046L16.9304 285.34L12.0765 277.953C9.40673 273.89 7.22265 270.41 7.22265 270.22C7.22265 270.029 9.01022 264.474 11.195 257.875C13.3798 251.276 15.1674 245.837 15.1674 245.789C15.1674 245.74 13.9082 245.989 12.3687 246.341C10.8292 246.694 7.49277 247.914 4.9537 249.053C-0.0988007 251.321 0.000154807 251.287 0.000154807 250.753C0.000154807 250.548 1.91628 249.095 4.25854 247.524C7.58161 245.294 9.41866 244.35 12.6222 243.221C15.8694 242.077 16.8517 241.569 17.3219 240.786C17.6491 240.243 21.1577 237.318 25.1189 234.287L32.3208 228.777L39.7488 219.605L47.1768 210.433L47.6054 196.588C47.8416 188.974 48.1392 178.862 48.2674 174.119L48.5003 165.493L41.1872 160.61L33.874 155.726L34.16 154.019C34.3175 153.08 34.4721 151.761 34.5038 151.089C34.5522 150.057 34.8075 149.722 36.1495 148.932C37.023 148.417 38.5867 147.162 39.6246 146.142C40.6625 145.122 41.6277 144.406 41.7693 144.55C41.9109 144.693 41.6639 145.57 41.22 146.497C40.7762 147.425 40.4624 148.233 40.5223 148.295C40.5826 148.356 41.6252 148.639 42.839 148.923C44.9216 149.412 45.1866 149.394 47.531 148.6C49.4829 147.94 50.3063 147.422 51.3691 146.186C52.1134 145.32 52.7229 144.416 52.7233 144.177C52.724 143.938 52.2037 142.391 51.567 140.74C50.4045 137.724 50.3327 137.684 49.7122 139.711C49.557 140.219 44.0574 142.481 44.0574 142.036C44.0574 141.958 44.9393 139.041 46.0169 135.553L47.9763 129.212L48.5801 120.45C49.1478 112.212 49.1471 111.257 48.5639 104.5L47.9438 97.313L46.0161 93.4631C44.9555 91.3457 43.2145 88.2137 42.1467 86.5029C40.2064 83.394 40.2045 83.3922 37.166 82.055C35.4944 81.3191 34.086 80.7527 34.0365 80.7956C33.9871 80.8388 35.1918 83.4179 36.7136 86.5267C39.2566 91.723 39.5921 92.6814 40.8661 98.3899C42.2203 104.459 42.2518 104.764 42.2518 111.861C42.2518 116.578 41.9925 121.662 41.5122 126.367L40.7722 133.612L38.3523 139.064L35.9321 144.517L32.912 147.183L29.8919 149.848L26.4334 148.671C22.7395 147.414 21.7994 146.628 23.9893 146.628C24.9344 146.628 25.9907 146.154 27.8732 144.887L30.4585 143.145L32.7491 138.244L35.0394 133.343L35.78 123.601L36.5207 113.86L35.7678 105.037L35.0152 96.2131L32.7145 89.7966L30.4137 83.3801L27.0773 82.0469L23.7409 80.7134L25.6924 79.4459C26.7656 78.7489 29.7525 76.2853 32.3299 73.9714C34.9068 71.6574 38.0717 69.0413 39.3628 68.1584C40.6538 67.2751 42.8982 65.5958 44.3499 64.4266C45.802 63.257 48.0215 61.6811 49.2825 60.9239L51.5746 59.5475L51.8234 54.231C51.9602 51.3069 52.2849 47.3302 52.5453 45.3935C52.966 42.263 53.23 41.4904 54.9258 38.427C57.5523 33.6825 58.8769 31.6446 60.8298 29.3431C61.75 28.2589 62.4361 27.3038 62.3541 27.2206C61.902 26.7615 51.8664 31.3447 47.5628 33.9758C44.7854 35.6742 44.6536 35.8249 37.4069 45.6054C32.5346 52.181 29.1917 57.0997 27.4691 60.2273L24.8737 64.9403L24.5238 70.677C24.3313 73.832 23.9348 77.2537 23.6426 78.2807C23.1551 79.9937 22.989 80.1851 21.6319 80.5976C20.8183 80.845 20.1166 80.995 20.0726 80.9305C20.0285 80.8663 20.2069 77.7611 20.4691 74.0304C20.7313 70.2997 20.9049 66.4835 20.8555 65.5504L20.7648 63.8535L16.8867 66.1004L13.009 68.3472L12.291 70.5472C11.6024 72.6576 10.5569 81.2047 10.9401 81.5934C11.0416 81.6968 11.922 81.4332 12.8963 81.0075C14.6384 80.2467 14.6932 80.2448 16.2262 80.9059L17.7845 81.578L16.2956 82.2596C15.4765 82.6347 14.8063 83.0498 14.8063 83.1817C14.8063 83.3141 15.794 83.7431 17.0012 84.1351L19.1965 84.8482L22.4181 93.6212L25.64 102.395L25.6389 111.037C25.6382 119.148 25.5815 119.893 24.7159 123.162C24.2085 125.078 23.3841 128.203 22.8832 130.107C21.9316 133.726 18.7931 139.662 17.8314 139.662C17.5703 139.662 17.4273 139.456 17.5133 139.203C17.9524 137.915 21.0996 126.606 22.5459 121.12C24.132 115.101 24.1955 114.663 24.193 109.753L24.1905 104.646L22.0815 98.0463C20.0931 91.8231 19.8136 91.2104 17.1832 87.3107L14.3939 83.1748L11.4886 84.7441C7.59497 86.8472 6.6387 88.3171 4.8645 94.9298C3.43444 100.259 3.3373 100.527 2.93465 100.275C2.78839 100.183 2.94731 97.9943 3.28749 95.4108C3.81834 91.3798 4.12348 90.245 5.4387 87.4133C6.66869 84.765 7.23962 82.7744 8.33166 77.3303C9.07991 73.5996 9.9896 69.6588 10.3532 68.5731L11.0145 66.5986L15.7091 64.7771C18.2911 63.775 21.0328 62.931 21.802 62.9013L23.2003 62.8474L26.316 57.4895C28.0296 54.5426 31.6033 49.0457 34.2572 45.2743C38.837 38.7651 39.3173 38.2169 43.7053 34.4928C46.248 32.3343 48.9517 30.3419 49.7137 30.0644C50.4757 29.7872 53.2932 28.6304 55.9745 27.4941C60.5911 25.5373 61.2722 25.105 68.8132 19.3448C75.9631 13.8835 76.8204 13.115 77.2011 11.8247C77.7763 9.8752 80.4364 6.25521 80.7275 7.02555C80.8456 7.33794 80.3765 9.42751 79.6849 11.6692L78.4275 15.745L78.7611 27.3801C79.0739 38.302 79.1732 39.4614 80.3819 46.3024L81.6693 53.5897L84.4405 58.1711L87.2118 62.7521L91.2492 65.2596L95.2869 67.7668L101.902 69.0479C107.551 70.1416 127.437 73.1163 182.456 81.0973L193.198 82.6556L196.468 81.9179C199.449 81.2451 199.805 81.0716 200.503 79.9478C200.924 79.2703 201.665 77.1253 202.151 75.1813C202.902 72.1714 203.06 70.5046 203.213 63.9474C203.313 59.7125 203.203 52.2877 202.969 47.4479C202.575 39.2846 202.44 38.1986 201.104 32.4348L199.664 26.2214L197.27 23.5056C194.862 20.774 192.709 18.9712 189.347 16.871C187.33 15.6104 190.08 16.1366 153.766 10.064C143.497 8.34698 133.584 6.59986 131.738 6.18151C129.891 5.76315 122.53 4.44246 115.38 3.2468C108.229 2.05077 101.851 0.980866 101.205 0.869402C100.56 0.757573 100.032 0.508613 100.032 0.316119C100.032 0.111525 101.796 -0.0190041 104.275 0.00226194C107.576 0.0301278 110.523 0.398617 117.546 1.66101ZM137.304 91.3549C138.934 93.3931 139.657 96.6497 138.837 98.2597C138.538 98.8482 138.229 99.3296 138.151 99.3296C138.073 99.3296 137.635 98.7111 137.178 97.9547C136.722 97.1986 135.638 95.805 134.771 94.8583L133.194 93.1364L134.325 91.4667C134.947 90.5482 135.592 89.7966 135.757 89.7966C135.922 89.7966 136.618 90.4976 137.304 91.3549ZM2.52803 105.681C2.52803 107.538 5.07829 124.528 6.16491 129.907L7.65347 137.278L9.69527 139.205C10.818 140.265 12.9129 141.832 14.3505 142.688C15.7878 143.544 16.9662 144.368 16.9687 144.52C16.9813 145.302 13.6445 144.685 10.4728 143.318L7.04209 141.84L5.70088 137.543C3.70205 131.137 1.80578 118.219 1.80578 111.008C1.80578 107.622 1.94228 105.563 2.1669 105.563C2.36552 105.563 2.52803 105.616 2.52803 105.681ZM130.186 108.21C132.665 109.316 132.767 109.33 135.514 108.931L138.314 108.523L140.736 110.362C143.072 112.135 143.278 112.425 146.5 118.506C148.338 121.975 149.848 124.935 149.855 125.084C149.861 125.234 149.177 125.088 148.332 124.759C147.295 124.355 145.45 122.826 142.645 120.043L138.492 115.924L134.483 115.136L130.475 114.347L125.455 115.242C122.694 115.734 117.918 116.899 114.842 117.832C110.62 119.111 108.781 119.501 107.344 119.42L105.441 119.312L111.313 115.602C116.231 112.494 126.667 106.963 127.436 107.056C127.558 107.071 128.795 107.59 130.186 108.21ZM133.797 124.037L137.408 124.446L135.258 126.014C134.076 126.877 132.884 127.496 132.611 127.389C132.337 127.283 131.716 127.195 131.232 127.195C130.379 127.195 127.116 124.542 127.116 123.849C127.116 123.452 129.118 123.508 133.797 124.037ZM37.9183 150.125C37.9183 150.233 38.7676 151.398 39.8055 152.713C41.6075 154.996 43.8631 156.848 44.3008 156.403C44.4138 156.288 44.3911 155.105 44.251 153.773C44.0177 151.564 43.9267 151.362 43.2138 151.465C42.5724 151.558 42.4489 151.792 42.5241 152.77C42.5742 153.425 42.4623 153.961 42.2749 153.961C42.0875 153.961 41.3146 153.056 40.5581 151.949C39.7849 150.818 38.9052 149.935 38.5502 149.932C38.2028 149.93 37.9183 150.016 37.9183 150.125ZM76.9198 159.321C88.6 161.583 87.0128 161.532 103.824 160.183C108.789 159.785 115.939 159.212 119.713 158.909C123.487 158.606 129.376 158.36 132.799 158.36L139.024 158.361L144.657 161.925C147.756 163.886 150.155 165.53 149.989 165.579C139.138 168.778 134.471 170.212 134.278 170.404C134.146 170.536 133.718 178.38 133.328 187.835L132.618 205.025L133.872 208.827C134.561 210.918 135.233 212.565 135.364 212.488C135.495 212.41 136.717 211.658 138.08 210.816C139.442 209.974 140.607 209.335 140.667 209.397C141.187 209.929 143.367 214.308 143.367 214.821C143.367 215.183 141.987 223.623 140.301 233.577C138.615 243.531 136.82 254.15 136.313 257.175C134.554 267.657 135.91 264.977 122.575 284.333C116.035 293.825 105.81 308.691 99.8512 317.368L89.0174 333.146L85.0725 336.226C78.725 341.181 77.6593 341.65 75.5031 340.438L74.6281 339.946L75.4182 339.691C75.8526 339.551 76.1228 339.296 76.0188 339.125C75.9144 338.954 73.5559 338.045 70.777 337.105L65.7249 335.395V331.145V326.896L68.7024 329.801C70.3401 331.398 71.8434 332.88 72.0428 333.093C72.2425 333.306 73.5747 334.603 75.0036 335.975L77.6016 338.47L79.8507 336.688C82.0383 334.954 89.7466 324.701 126.428 274.734L131.033 268.462L132.536 258.847C133.363 253.559 133.964 249.156 133.871 249.062C133.71 248.898 129.735 252.623 122.422 259.794C119.154 262.998 118.785 263.245 114.657 264.996C112.274 266.007 105.544 268.907 99.7031 271.441L89.0821 276.047L83.9942 275.511C81.1955 275.217 74.8433 274.557 69.8778 274.045C58.8144 272.904 57.7801 272.759 57.7801 272.349C57.7801 272.166 64.5187 272.024 73.2984 272.024H88.8163L96.6412 268.468L104.466 264.912L106.492 261.668C115.635 247.032 119.996 240.293 120.385 240.203C120.812 240.105 120.377 246.651 119.336 255.983C119.179 257.384 119.23 258.091 119.487 258.091C119.699 258.091 123.274 254.64 127.432 250.421C132.649 245.126 135.057 242.429 135.203 241.713C135.32 241.142 135.985 236.963 136.682 232.426C137.379 227.888 138.129 223.156 138.347 221.909C138.774 219.475 138.604 218.763 137.634 218.93C136.624 219.104 133.491 216.14 132.827 214.381C132.499 213.517 131.422 210.813 130.432 208.374L128.633 203.939L128.946 200.858C130.117 189.341 131.818 171.08 131.729 170.989C131.67 170.929 127.655 171.336 122.808 171.895L113.994 172.91L100.061 170.596C92.3983 169.323 82.8451 167.535 78.8319 166.621C74.8187 165.708 71.4516 164.961 71.3498 164.961C71.2476 164.961 70.6095 165.841 69.932 166.916L68.7002 168.871L67.8562 178.266L67.0127 187.661L68.3257 198.585C69.4008 207.53 69.5871 210.041 69.3531 212.443C69.196 214.056 68.9494 217.315 68.8049 219.684C68.6027 223.008 68.4268 223.993 68.0364 223.993C67.7584 223.993 67.5305 223.656 67.5305 223.246C67.5305 222.835 67.1271 218.504 66.6342 213.621C66.1413 208.738 65.2518 199.932 64.6581 194.051L63.5784 183.36L64.4667 170.585C64.9553 163.56 65.3569 157.688 65.3594 157.536C65.3663 157.107 65.9755 157.201 76.9198 159.321ZM155.471 224.134C158.303 225.445 159.884 226.62 167.569 233.128C172.432 237.245 176.462 240.652 176.525 240.7C176.588 240.748 176.432 241.126 176.177 241.54C175.923 241.954 175.801 242.38 175.906 242.487C176.012 242.594 179.093 244.052 182.754 245.727C186.415 247.403 193.653 250.746 198.838 253.157C208.217 257.518 208.265 257.546 207.888 258.458C207.68 258.962 207.405 259.504 207.278 259.662C206.989 260.018 205.079 259.139 191.938 252.599C179.289 246.304 175.185 244.431 174.567 244.672C173.602 245.048 172.892 247.349 171.861 253.453C171.277 256.912 169.9 265.104 168.8 271.658C167.702 278.212 166.679 284.069 166.528 284.674C166.256 285.761 166.166 285.797 158.872 287.758C154.813 288.849 151.445 289.776 151.388 289.819C151.331 289.861 152.988 294.743 155.07 300.668C157.153 306.592 158.743 311.546 158.605 311.675C158.264 311.994 110.527 339.87 109.91 340.11C109.641 340.215 109.421 340.131 109.421 339.924C109.421 339.717 113.118 336.843 117.637 333.537C122.155 330.231 131.905 323.099 139.304 317.689C146.702 312.278 152.756 307.708 152.756 307.532C152.756 307.356 149.181 299.226 144.811 289.465C140.442 279.704 136.867 271.539 136.867 271.321C136.867 271.103 136.989 270.931 137.137 270.939C137.286 270.948 140.412 274.993 144.084 279.929C147.756 284.864 150.93 288.836 151.138 288.755C152.148 288.362 163.444 279.952 163.679 279.419C163.944 278.817 171.8 243.112 171.982 241.678C172.053 241.118 169.771 238.936 162.506 232.616C151.362 222.923 151.912 223.431 152.082 222.978C152.155 222.784 153.68 223.304 155.471 224.134ZM45.8897 267.024C46.7687 267.712 48.7069 269.786 50.1965 271.632C52.4214 274.389 53.6142 275.47 56.8773 277.683C60.9353 280.435 62.7947 282.088 62.3462 282.543C62.1429 282.75 52.577 278.217 50.532 276.945C49.6476 276.395 43.637 266.438 43.9794 266.09C44.1549 265.912 44.9909 266.321 45.8897 267.024Z" fill="#9A9A9A"/>
</svg>
