<svg width="433" height="474" viewBox="0 0 433 474" fill="none" xmlns="http://www.w3.org/2000/svg">
<path fill-rule="evenodd" clip-rule="evenodd" d="M109.588 69.9776C103.572 71.0406 92.4484 72.7789 84.8684 73.8406C77.2884 74.9027 64.5895 77.0532 56.6486 78.6195C48.7076 80.1854 39.1645 82.0638 35.4417 82.7937C31.7189 83.5232 26.5015 84.6377 23.8475 85.2703C19.1543 86.3887 18.9324 86.497 15.7508 89.2145C13.9518 90.7511 11.5371 93.1709 10.3847 94.5918C8.35635 97.0932 8.23603 97.4071 6.58572 104.504C4.99753 111.334 4.84484 112.59 4.3452 122.964C4.04987 129.087 3.90899 138.32 4.0315 143.482C4.266 153.335 4.42395 154.307 7.43888 164.436C8.62542 168.423 9.96116 169.383 16.884 171.224L22.3184 172.669L71.8597 165.269C99.1074 161.2 125.924 157.183 131.451 156.344L141.501 154.819L146.914 151.442L152.327 148.066L155.085 143.443L157.844 138.82L159.857 129.341L161.871 119.862V105.994C161.871 94.3814 161.757 91.7888 161.166 90.0592C160.778 88.9228 160.532 87.924 160.619 87.8393C161.054 87.4168 169.016 95.224 171.064 98.0811C172.355 99.8819 174.424 102.632 175.663 104.193C176.901 105.753 179.622 109.589 181.708 112.716C185.142 117.862 185.563 118.725 186.156 121.813C186.518 123.702 186.81 127.648 186.81 130.656C186.81 134.176 187.015 136.583 187.391 137.493C187.891 138.703 187.803 140.594 186.752 151.121C186.081 157.844 185.524 163.492 185.515 163.672C185.505 163.852 185.692 164 185.929 164C186.166 164 186.926 162.87 187.617 161.489C188.703 159.323 188.949 158.112 189.418 152.649C189.717 149.168 190.089 145.789 190.245 145.14L190.529 143.961L194.973 146.426C200.767 149.639 200.81 149.727 200.81 158.355V164.903L196.9 169.363C193.435 173.313 192.574 174.032 189.353 175.663C187.352 176.676 181.635 179.672 176.648 182.321L167.579 187.137H161.734C154.656 187.137 147.736 185.963 135.693 182.721C131.201 181.511 125.601 180.013 123.248 179.392C119.212 178.326 118.058 177.495 120.176 177.182C120.668 177.11 128.779 178.141 138.2 179.474C160.123 182.576 163.492 182.659 171.437 180.293L176.846 178.683L178.81 175.737C179.89 174.116 180.647 172.587 180.494 172.339C180.33 172.075 179.133 172.757 177.611 173.98C175.529 175.654 174.097 176.358 170.452 177.497C164.307 179.417 160.843 179.401 143.714 177.373C136.255 176.49 128.183 175.56 125.776 175.306C123.37 175.052 120.29 174.565 118.932 174.224C117.573 173.883 114.906 173.604 113.004 173.604C109.718 173.604 109.178 173.452 102.129 170.539L94.7125 167.474L90.5561 168.183C86.7677 168.83 86.083 169.106 82.8191 171.307L79.2384 173.722L77.5689 177.854L75.8993 181.986L68.6435 185.619C57.5822 191.157 41.3057 197.13 37.1734 197.167C36.2559 197.175 34.8541 195.616 28.7149 187.755C24.6674 182.572 21.4215 178.271 21.5015 178.196C21.5816 178.121 23.8129 177.529 26.4599 176.88C31.1645 175.727 35.8665 173.805 35.8665 173.036C35.8665 172.61 33.6024 172.752 26.6787 173.611C22.4028 174.142 21.7977 174.119 17.9358 173.267C15.6541 172.763 13.7295 172.409 13.6591 172.479C13.5886 172.55 18.4437 178.733 24.4487 186.219L35.3664 199.831L40.9562 203.852L46.5463 207.872L49.7087 213.305C51.4483 216.293 53.2521 219.044 53.7172 219.417C54.4203 219.981 54.7463 221.532 55.651 228.614C56.6158 236.166 57.0787 238.258 59.7331 247.058C62.3831 255.844 63.4301 258.471 63.4301 256.333C63.4301 255.974 61.5654 246.276 59.2859 234.782C57.0065 223.287 54.8884 211.842 54.5791 209.349L54.0169 204.817L50.3011 204.588C47.0145 204.385 46.1062 204.125 42.4293 202.334C38.8661 200.599 38.4702 200.304 39.6559 200.271C40.4167 200.25 44.3544 198.935 48.4062 197.348C59.9251 192.838 72.7068 188.01 73.1263 188.01C73.3363 188.01 73.0183 188.974 72.4197 190.152C71.4485 192.065 70.5498 192.826 64.0417 197.246C60.0319 199.969 56.236 202.623 55.6064 203.142C53.3646 204.992 55.2008 204.731 59.3629 202.607C64.4736 200 79.6812 188.507 80.1165 186.923C80.2705 186.363 80.5352 184.464 80.705 182.701C80.9754 179.889 81.3083 178.99 83.4229 175.35C84.7477 173.069 85.9241 171.107 86.0366 170.991C86.1486 170.874 88.3436 170.576 90.914 170.328L95.5876 169.876L99.3065 171.57C102.699 173.116 105.459 175.038 104.971 175.514C104.863 175.62 103.069 175.064 100.983 174.279L97.1915 172.854L96.7238 174.708C95.8212 178.283 97.2388 179.824 104.016 182.634L106.32 183.589L107.44 181.384C108.499 179.299 108.593 179.225 109.166 180.041C109.75 180.873 109.915 180.882 113.681 180.288L117.589 179.672L135.183 185.151L152.777 190.629H160.575H168.374L177.264 187.516C185.607 184.595 186.289 184.273 188.355 182.277C189.566 181.108 190.678 180.152 190.827 180.152C190.976 180.152 190.727 181.576 190.274 183.317C189.56 186.06 189.451 188.139 189.455 198.923C189.459 206.491 189.708 213.844 190.091 217.695C191.186 228.692 191.837 226.617 183.34 239.219C179.266 245.262 176.002 250.275 176.087 250.359C176.171 250.444 179.887 249.698 184.343 248.703C192.111 246.968 194.331 246.788 195.915 247.765C196.279 247.99 195.535 250.16 193.37 255.181L190.31 262.279V289.218V316.156L194.071 325.968C196.14 331.365 197.988 335.879 198.176 335.999C198.365 336.119 199.123 337.949 199.861 340.066C200.8 342.758 201.096 344.202 200.845 344.868C200.648 345.392 199.557 350.83 198.422 356.953C196.536 367.119 195.717 370.049 194.759 370.049C194.57 370.049 193.741 365.531 192.916 360.009C191.868 352.99 191.251 349.968 190.863 349.968C190.559 349.968 190.31 350.148 190.31 350.369C190.31 350.59 188.832 357.996 187.027 366.827C183.275 385.175 183.815 383.954 177.958 387.324C176.089 388.4 174.559 389.472 174.559 389.706C174.559 390.336 174.746 390.279 180.745 387.816L186.275 385.547L193.98 377.287L201.685 369.028V357.883C201.685 351.485 201.849 346.915 202.068 347.152C202.279 347.38 203.165 349.729 204.037 352.37L205.623 357.173V372.274V387.375L200.543 399.994C197.749 406.934 192.136 420.851 188.069 430.921C184.002 440.99 180.832 449.386 181.024 449.577C181.216 449.769 186.23 439.959 192.167 427.777C198.104 415.595 205.166 401.11 207.86 395.587L212.758 385.547L211.165 371.06L209.572 356.574L204.485 344.649C201.687 338.091 198.734 331.166 197.923 329.262C197.112 327.357 196.514 325.734 196.594 325.654C196.674 325.574 198.787 328.2 201.291 331.488C205.625 337.182 206.044 337.593 210.087 340.116C212.422 341.573 217.348 345.351 221.034 348.511C226.596 353.281 227.817 354.543 228.217 355.933C228.482 356.854 231.244 365.087 234.355 374.228L240.011 390.848L236.606 396.273C234.733 399.257 233.136 401.885 233.055 402.113C232.975 402.341 228.359 400.131 222.798 397.202C208.435 389.638 208.109 389.897 220.938 398.677C227.126 402.911 229.932 405.099 230.578 406.19L231.488 407.73L237.369 398.935C240.603 394.098 243.249 389.954 243.249 389.728C243.249 389.501 241.084 382.887 238.437 375.03C235.79 367.173 233.624 360.698 233.624 360.64C233.624 360.582 235.15 360.878 237.015 361.298C238.88 361.717 242.922 363.171 245.998 364.527C252.12 367.227 252 367.186 252 366.55C252 366.306 249.678 364.576 246.841 362.706C242.815 360.051 240.589 358.927 236.708 357.583C232.774 356.221 231.584 355.615 231.014 354.684C230.617 354.037 226.367 350.555 221.567 346.946L212.842 340.386L203.843 329.465L194.844 318.545L194.324 302.061C194.038 292.995 193.678 280.956 193.522 275.308L193.24 265.039L202.1 259.225L210.96 253.41L210.614 251.377C210.423 250.259 210.236 248.69 210.197 247.889C210.139 246.66 209.829 246.261 208.204 245.32C207.145 244.708 205.251 243.213 203.993 241.999C202.736 240.785 201.566 239.932 201.395 240.103C201.223 240.274 201.523 241.318 202.06 242.422C202.598 243.526 202.978 244.489 202.906 244.562C202.833 244.634 201.569 244.971 200.099 245.311C197.576 245.892 197.255 245.87 194.414 244.926C192.05 244.14 191.052 243.523 189.764 242.051C188.863 241.02 188.124 239.944 188.124 239.659C188.123 239.374 188.753 237.533 189.525 235.567C190.933 231.976 191.02 231.929 191.772 234.342C191.96 234.947 198.623 237.64 198.623 237.111C198.623 237.018 197.554 233.545 196.249 229.392L193.875 221.842L193.143 211.409C192.456 201.602 192.456 200.464 193.163 192.42L193.914 183.862L196.25 179.279C197.535 176.758 199.644 173.029 200.938 170.992C203.288 167.29 203.291 167.288 206.972 165.696C208.997 164.82 210.703 164.145 210.763 164.196C210.823 164.248 209.364 167.319 207.52 171.02C204.439 177.207 204.033 178.348 202.489 185.145C200.848 192.371 200.81 192.733 200.81 201.184C200.81 206.799 201.124 212.853 201.706 218.455L202.603 227.08L205.535 233.572L208.467 240.064L212.126 243.238L215.785 246.412L219.975 245.01C224.45 243.513 225.589 242.578 222.936 242.578C221.791 242.578 220.511 242.014 218.231 240.504L215.098 238.431L212.323 232.595L209.548 226.76L208.651 215.162L207.754 203.563L208.666 193.058L209.578 182.553L212.365 174.913L215.153 167.274L219.195 165.686L223.237 164.099L220.873 162.59C219.572 161.76 215.954 158.827 212.831 156.071C209.709 153.316 205.875 150.202 204.31 149.15C202.746 148.099 200.027 146.099 198.268 144.707C196.509 143.315 193.82 141.438 192.292 140.537L189.515 138.898L189.214 132.568C189.048 129.087 188.655 124.352 188.339 122.046C187.83 118.319 187.51 117.399 185.455 113.752C182.273 108.103 180.668 105.677 178.302 102.936C177.188 101.646 176.356 100.508 176.456 100.409C177.003 99.8627 189.162 105.32 194.376 108.452C197.741 110.474 197.9 110.654 206.68 122.299C212.583 130.128 216.633 135.984 218.72 139.708L221.865 145.319L222.288 152.149C222.522 155.906 223.002 159.979 223.356 161.202C223.947 163.242 224.148 163.47 225.792 163.961C226.778 164.255 227.628 164.434 227.681 164.357C227.735 164.281 227.519 160.584 227.201 156.142C226.883 151.7 226.673 147.156 226.733 146.045L226.843 144.025L231.541 146.7L236.239 149.375L237.109 151.995C237.943 154.507 239.21 164.684 238.746 165.146C238.623 165.269 237.556 164.956 236.376 164.449C234.265 163.543 234.199 163.541 232.341 164.328L230.453 165.128L232.257 165.94C233.25 166.386 234.062 166.88 234.062 167.038C234.062 167.195 232.865 167.706 231.402 168.173L228.743 169.022L224.84 179.467L220.936 189.913L220.937 200.202C220.938 209.86 221.007 210.746 222.056 214.639C222.67 216.92 223.669 220.641 224.276 222.908C225.429 227.216 229.231 234.283 230.397 234.283C230.713 234.283 230.886 234.038 230.782 233.738C230.25 232.203 226.437 218.739 224.685 212.207C222.763 205.041 222.686 204.52 222.689 198.674L222.692 192.593L225.247 184.736C227.656 177.326 227.995 176.597 231.182 171.953L234.561 167.029L238.081 168.898C242.798 171.402 243.957 173.152 246.106 181.025C247.839 187.371 247.957 187.69 248.445 187.389C248.622 187.28 248.429 184.674 248.017 181.598C247.374 176.798 247.004 175.447 245.411 172.076C243.921 168.923 243.229 166.553 241.906 160.071C240.999 155.629 239.897 150.937 239.457 149.644L238.656 147.293L232.968 145.125C229.84 143.932 226.518 142.927 225.586 142.891L223.892 142.827L220.117 136.448C218.041 132.939 213.711 126.395 210.496 121.904C204.948 114.154 204.366 113.502 199.049 109.068C195.969 106.498 192.693 104.126 191.77 103.795C190.847 103.465 187.433 102.088 184.185 100.735C178.592 98.4051 177.766 97.8904 168.63 91.0322C159.968 84.5299 158.929 83.6149 158.468 82.0787C157.771 79.7576 154.548 75.4475 154.196 76.3647C154.053 76.7367 154.621 79.2245 155.459 81.8936L156.982 86.7462L156.578 100.599C156.199 113.603 156.079 114.983 154.614 123.128L153.055 131.805L149.697 137.259L146.34 142.714L141.448 145.699L136.556 148.684L128.541 150.21C121.697 151.512 97.605 155.053 30.9471 164.556L17.9336 166.411L13.9719 165.533C10.3597 164.732 9.92835 164.525 9.08306 163.187C8.57292 162.38 7.6747 159.827 7.08667 157.512C6.17664 153.928 5.98545 151.944 5.79906 144.137C5.67831 139.095 5.81175 130.255 6.09482 124.492C6.57216 114.773 6.73579 113.48 8.3546 106.617L10.0994 99.2197L12.9997 95.9862C15.9171 92.7339 18.5251 90.5874 22.5984 88.0869C25.0428 86.586 21.7107 87.2125 65.706 79.9824C78.1477 77.938 90.1575 75.8579 92.3946 75.3598C94.632 74.8617 103.55 73.2893 112.213 71.8657C120.876 70.4417 128.603 69.1678 129.386 69.0351C130.168 68.902 130.808 68.6056 130.808 68.3764C130.808 68.1328 128.67 67.9774 125.667 68.0027C121.668 68.0359 118.097 68.4746 109.588 69.9776ZM85.6511 176.769C83.6762 179.195 82.7998 183.073 83.7934 184.99C84.1561 185.69 84.5306 186.263 84.6251 186.263C84.7197 186.263 85.2499 185.527 85.8034 184.626C86.3564 183.726 87.6694 182.067 88.7203 180.94L90.6309 178.89L89.2602 176.902C88.5059 175.808 87.7254 174.913 87.525 174.913C87.3251 174.913 86.482 175.748 85.6511 176.769ZM248.937 193.825C248.937 196.037 245.847 216.265 244.531 222.669L242.728 231.446L240.254 233.74C238.894 235.001 236.356 236.867 234.614 237.887C232.872 238.906 231.445 239.887 231.442 240.068C231.426 240.999 235.469 240.264 239.312 238.637L243.468 236.877L245.093 231.761C247.515 224.134 249.812 208.753 249.812 200.168C249.812 196.137 249.647 193.685 249.375 193.685C249.134 193.685 248.937 193.748 248.937 193.825ZM94.275 196.837C91.2715 198.153 91.1472 198.17 87.8199 197.694L84.4274 197.209L81.4925 199.398C78.6627 201.509 78.4133 201.855 74.5093 209.095C72.2824 213.225 70.4535 216.749 70.4452 216.927C70.4374 217.105 71.2669 216.931 72.2898 216.54C73.5459 216.059 75.7812 214.238 79.1807 210.925L84.2121 206.022L89.0686 205.082L93.925 204.143L100.006 205.209C103.351 205.795 109.137 207.182 112.865 208.292C117.979 209.816 120.208 210.28 121.948 210.183L124.255 210.055L117.14 205.638C111.182 201.938 98.5382 195.352 97.6067 195.463C97.4588 195.481 95.9595 196.099 94.275 196.837ZM89.8999 215.681L85.5247 216.167L88.1292 218.035C89.5621 219.062 91.0055 219.799 91.3371 219.672C91.6687 219.545 92.4208 219.441 93.008 219.441C94.0409 219.441 97.9939 216.282 97.9939 215.457C97.9939 214.984 95.5688 215.051 89.8999 215.681ZM206.061 246.741C206.061 246.87 205.032 248.256 203.774 249.822C201.591 252.541 198.858 254.745 198.328 254.216C198.191 254.08 198.219 252.67 198.388 251.085C198.671 248.455 198.781 248.214 199.645 248.337C200.422 248.448 200.571 248.726 200.48 249.89C200.42 250.671 200.555 251.309 200.782 251.309C201.009 251.309 201.946 250.231 202.862 248.913C203.799 247.567 204.865 246.515 205.295 246.512C205.716 246.509 206.061 246.612 206.061 246.741ZM158.809 257.69C144.658 260.383 146.581 260.323 126.214 258.717C120.198 258.243 111.535 257.56 106.963 257.2C102.391 256.839 95.2564 256.546 91.1087 256.546L83.5677 256.547L76.742 260.791C72.9881 263.125 70.0817 265.082 70.2829 265.141C83.4285 268.95 89.0834 270.657 89.3166 270.886C89.4772 271.043 89.9952 280.382 90.4682 291.639L91.3279 312.107L89.8089 316.633C88.9736 319.122 88.1598 321.084 88.001 320.991C87.8422 320.899 86.3617 320.003 84.7109 319C83.0602 317.998 81.6496 317.238 81.5761 317.311C80.9461 317.945 78.3057 323.159 78.3057 323.769C78.3057 324.2 79.977 334.249 82.0197 346.1C84.0625 357.952 86.237 370.595 86.8517 374.196C88.9824 386.676 87.3399 383.485 103.496 406.531C111.419 417.832 123.807 435.532 131.026 445.864L144.152 464.649L148.931 468.316C156.622 474.216 157.913 474.774 160.525 473.33L161.585 472.745L160.628 472.441C160.102 472.274 159.774 471.971 159.9 471.768C160.027 471.564 162.884 470.481 166.251 469.362L172.372 467.327V462.267V457.207L168.764 460.666C166.78 462.568 164.959 464.333 164.717 464.586C164.475 464.84 162.861 466.384 161.13 468.018L157.983 470.987L155.258 468.866C152.607 466.802 143.269 454.595 98.8274 395.103L93.2482 387.635L91.4272 376.187C90.4253 369.891 89.6977 364.649 89.8097 364.537C90.0057 364.341 94.821 368.777 103.682 377.315C107.64 381.129 108.088 381.424 113.088 383.508C115.976 384.712 124.129 388.165 131.206 391.182L144.074 396.666L150.238 396.028C153.629 395.677 161.324 394.891 167.34 394.282C180.744 392.924 181.997 392.751 181.997 392.263C181.997 392.045 173.833 391.877 163.196 391.877H144.396L134.916 387.643L125.435 383.408L122.98 379.546C111.904 362.12 106.62 354.097 106.149 353.99C105.632 353.873 106.159 361.667 107.42 372.778C107.61 374.445 107.548 375.288 107.237 375.288C106.981 375.288 102.649 371.178 97.6115 366.155C91.2903 359.851 88.3738 356.639 88.1962 355.787C88.0548 355.108 87.2485 350.132 86.4041 344.73C85.5597 339.327 84.6518 333.693 84.3871 332.208C83.87 329.31 84.0765 328.463 85.2512 328.661C86.475 328.868 90.27 325.34 91.0755 323.246C91.4718 322.216 92.777 318.998 93.9762 316.094L96.1568 310.813L95.7775 307.144C94.3586 293.433 92.297 271.69 92.4055 271.582C92.4768 271.51 97.3407 271.996 103.213 272.661L113.892 273.869L130.772 271.114C140.056 269.599 151.63 267.469 156.492 266.382C161.354 265.295 165.434 264.405 165.557 264.405C165.681 264.405 166.454 265.453 167.275 266.733L168.767 269.061L169.79 280.247L170.812 291.432L169.221 304.439C167.918 315.089 167.693 318.078 167.976 320.938C168.166 322.859 168.465 326.739 168.64 329.56C168.885 333.516 169.098 334.689 169.571 334.689C169.908 334.689 170.184 334.289 170.184 333.8C170.184 333.311 170.673 328.154 171.27 322.34C171.867 316.527 172.945 306.042 173.664 299.041L174.972 286.311L173.896 271.102C173.304 262.737 172.818 255.745 172.815 255.565C172.806 255.054 172.068 255.167 158.809 257.69ZM63.6405 334.857C60.2104 336.419 58.295 337.818 48.9837 345.566C43.0926 350.467 38.2099 354.524 38.1333 354.581C38.0563 354.638 38.2457 355.088 38.5542 355.581C38.8626 356.074 39.0101 356.581 38.8828 356.708C38.755 356.836 35.0217 358.572 30.5861 360.567C26.151 362.562 17.3819 366.543 11.0996 369.413C-0.262731 374.606 -0.320921 374.639 0.135409 375.724C0.387418 376.325 0.720369 376.969 0.875249 377.158C1.22483 377.582 3.53929 376.535 19.4596 368.749C34.785 361.254 39.7565 359.024 40.5051 359.311C41.675 359.759 42.5343 362.498 43.7834 369.765C44.4913 373.883 46.16 383.637 47.4918 391.44C48.8232 399.243 50.0622 406.217 50.2455 406.937C50.5741 408.232 50.6835 408.275 59.52 410.609C64.4377 411.908 68.518 413.012 68.5871 413.063C68.6562 413.113 66.6489 418.926 64.1262 425.98C61.6035 433.034 59.6762 438.931 59.8438 439.085C60.2576 439.465 118.092 472.655 118.839 472.941C119.165 473.065 119.432 472.966 119.432 472.719C119.432 472.473 114.953 469.051 109.479 465.115C104.005 461.178 92.1916 452.687 83.2277 446.245C74.2643 439.804 66.9302 434.362 66.9302 434.153C66.9302 433.943 71.2616 424.263 76.5556 412.642C81.8495 401.02 86.181 391.299 86.181 391.039C86.181 390.78 86.0331 390.575 85.8528 390.585C85.6726 390.594 81.8854 395.411 77.4372 401.288C72.9885 407.164 69.1427 411.893 68.8903 411.797C67.6674 411.328 53.9815 401.316 53.6971 400.681C53.3751 399.964 43.8578 357.453 43.6368 355.745C43.5506 355.079 46.3153 352.481 55.1173 344.957C68.619 333.415 67.9523 334.021 67.7466 333.481C67.6587 333.25 65.8106 333.869 63.6405 334.857ZM196.403 385.923C195.338 386.742 192.99 389.211 191.185 391.409C188.489 394.692 187.044 395.978 183.091 398.613C178.175 401.891 175.922 403.858 176.465 404.401C176.711 404.647 188.301 399.25 190.779 397.735C191.85 397.08 199.132 385.225 198.717 384.812C198.505 384.599 197.492 385.086 196.403 385.923Z" fill="black"/>
<path fill-rule="evenodd" clip-rule="evenodd" d="M342.546 1.66101C347.512 2.55382 356.693 4.01384 362.95 4.90555C369.206 5.79762 379.688 7.60377 386.242 8.91933C392.797 10.2345 400.674 11.8122 403.747 12.4253C406.819 13.038 411.126 13.974 413.316 14.5053C417.19 15.4447 417.373 15.5356 419.999 17.8181C421.484 19.1087 423.477 21.1411 424.429 22.3345C426.103 24.4355 426.202 24.6991 427.564 30.6594C428.875 36.3961 429.001 37.451 429.413 46.1646C429.657 51.3069 429.774 59.0617 429.672 63.3974C429.479 71.6732 429.348 72.4893 426.86 80.9968C425.881 84.3455 424.778 85.1518 419.064 86.698L414.578 87.912L373.687 81.6968C351.197 78.2785 329.063 74.9049 324.501 74.2005L316.205 72.9194L311.738 70.0833L307.27 67.2473L304.993 63.3647L302.716 59.4819L301.054 51.5203L299.392 43.5587V31.9108C299.392 22.1578 299.487 19.9802 299.974 18.5275C300.294 17.5731 300.498 16.7342 300.425 16.6631C300.066 16.3082 293.494 22.8654 291.804 25.2652C290.739 26.7777 289.031 29.0876 288.009 30.3984C286.986 31.7092 284.741 34.9306 283.018 37.557C280.184 41.8795 279.837 42.6036 279.348 45.1973C279.049 46.7842 278.808 50.098 278.808 52.625C278.808 55.581 278.639 57.6031 278.328 58.3676C277.915 59.384 277.988 60.972 278.855 69.8139C279.409 75.4603 279.869 80.2041 279.877 80.3552C279.885 80.5063 279.731 80.6302 279.535 80.6302C279.339 80.6302 278.712 79.6817 278.141 78.5219C277.246 76.7026 277.042 75.6851 276.655 71.0971C276.408 68.1731 276.101 65.3348 275.973 64.7903L275.738 63.7996L272.07 65.8697C267.287 68.5687 267.252 68.6428 267.252 75.889V81.3892L270.479 85.1346C273.339 88.4524 274.05 89.0563 276.709 90.4265C278.36 91.2768 283.079 93.7931 287.196 96.018L294.681 100.063H299.505C305.347 100.063 311.059 99.0774 320.999 96.3542C324.707 95.3382 329.329 94.0802 331.271 93.5581C334.603 92.6627 335.556 91.9654 333.807 91.7021C333.401 91.6412 326.706 92.5073 318.93 93.627C300.835 96.2328 298.054 96.3025 291.496 94.3152L287.032 92.9626L285.411 90.4881C284.52 89.1271 283.894 87.8427 284.021 87.6344C284.156 87.4126 285.144 87.9853 286.4 89.013C288.119 90.4192 289.301 91.0098 292.31 91.9664C297.382 93.579 300.241 93.5658 314.379 91.8627C320.536 91.1209 327.199 90.3396 329.185 90.1262C331.171 89.9128 333.713 89.504 334.834 89.2176C335.955 88.9309 338.157 88.6966 339.727 88.6966C342.439 88.6966 342.885 88.569 348.703 86.1223L354.825 83.5484L358.255 84.1438C361.382 84.6869 361.947 84.919 364.641 86.768L367.597 88.796L368.975 92.2667L370.353 95.7371L376.342 98.7881C385.472 103.44 398.906 108.456 402.317 108.488C403.074 108.495 404.232 107.184 409.299 100.582C412.64 96.2295 415.319 92.6169 415.253 92.5538C415.187 92.4911 413.345 91.9939 411.16 91.4487C407.277 90.48 403.396 88.8656 403.396 88.2196C403.396 87.8621 405.265 87.9813 410.98 88.7032C414.509 89.1491 415.008 89.1293 418.196 88.4136C420.079 87.9908 421.668 87.6934 421.726 87.7525C421.784 87.8115 417.777 93.0044 412.82 99.2926L403.809 110.725L399.195 114.102L394.581 117.479L391.971 122.042C390.535 124.552 389.046 126.862 388.662 127.175C388.082 127.649 387.813 128.951 387.066 134.9C386.27 141.243 385.887 143 383.697 150.391C381.509 157.771 380.645 159.977 380.645 158.181C380.645 157.88 382.184 149.734 384.066 140.08C385.947 130.426 387.695 120.813 387.951 118.719L388.415 114.912L391.482 114.72C394.194 114.55 394.944 114.332 397.979 112.828C400.92 111.37 401.247 111.122 400.268 111.095C399.64 111.077 396.39 109.973 393.046 108.64C383.538 104.852 372.988 100.796 372.642 100.796C372.468 100.796 372.731 101.606 373.225 102.596C374.027 104.202 374.768 104.841 380.14 108.554C383.45 110.841 386.583 113.07 387.103 113.506C388.953 115.06 387.437 114.84 384.002 113.057C379.784 110.867 367.231 101.214 366.872 99.8836C366.745 99.4136 366.526 97.8179 366.386 96.3377C366.163 93.9757 365.888 93.2204 364.143 90.1632C363.05 88.2475 362.078 86.6001 361.986 86.5022C361.893 86.4043 360.081 86.1539 357.96 85.9452L354.102 85.5657L351.033 86.9887C348.233 88.2867 345.954 89.9011 346.357 90.3015C346.446 90.3898 347.927 89.9231 349.649 89.2642L352.778 88.0667L353.164 89.6243C353.909 92.6272 352.739 93.9215 347.145 96.2813L345.244 97.0835L344.319 95.2311C343.446 93.4804 343.368 93.4184 342.895 94.1037C342.413 94.8018 342.277 94.8095 339.168 94.3112L335.942 93.7939L321.42 98.395L306.898 102.996H300.462H294.025L286.687 100.382C279.801 97.9279 279.238 97.6577 277.533 95.9817C276.533 94.9998 275.615 94.1964 275.492 94.1964C275.369 94.1964 275.575 95.3925 275.949 96.8547C276.538 99.1588 276.628 100.905 276.624 109.963C276.621 116.319 276.416 122.495 276.099 125.729C275.195 134.965 274.658 133.223 281.671 143.807C285.034 148.882 287.729 153.093 287.659 153.163C287.589 153.235 284.522 152.609 280.844 151.773C274.432 150.316 272.6 150.165 271.293 150.985C270.992 151.174 271.606 152.997 273.393 157.214L275.919 163.175V185.801V208.427L272.814 216.668C271.106 221.2 269.582 224.992 269.426 225.092C269.27 225.193 268.644 226.731 268.035 228.509C267.26 230.769 267.016 231.983 267.223 232.542C267.386 232.982 268.286 237.55 269.224 242.692C270.78 251.23 271.456 253.692 272.247 253.692C272.403 253.692 273.087 249.897 273.768 245.259C274.632 239.363 275.142 236.825 275.462 236.825C275.713 236.825 275.919 236.977 275.919 237.162C275.919 237.348 277.138 243.568 278.629 250.985C281.725 266.396 281.279 265.37 286.114 268.201C287.657 269.105 288.919 270.005 288.919 270.201C288.919 270.73 288.765 270.682 283.814 268.614L279.249 266.708L272.89 259.771L266.53 252.834V243.473C266.53 238.1 266.395 234.261 266.214 234.461C266.039 234.652 265.308 236.624 264.588 238.843L263.279 242.877V255.56V268.244L267.472 278.842C269.779 284.671 274.412 296.36 277.768 304.818C281.125 313.275 283.742 320.327 283.584 320.487C283.425 320.648 279.286 312.409 274.386 302.177C269.486 291.945 263.657 279.779 261.433 275.141L257.39 266.708L258.705 254.541L260.02 242.374L264.219 232.358C266.528 226.849 268.966 221.034 269.635 219.434C270.304 217.835 270.798 216.471 270.732 216.404C270.666 216.337 268.922 218.542 266.855 221.304C263.278 226.086 262.932 226.432 259.595 228.551C257.668 229.774 253.602 232.948 250.559 235.602C245.968 239.608 244.96 240.668 244.63 241.835C244.411 242.609 242.132 249.523 239.564 257.201L234.896 271.16L237.706 275.717C239.252 278.223 240.57 280.431 240.637 280.622C240.703 280.813 244.513 278.957 249.103 276.497C260.958 270.145 261.228 270.362 250.639 277.736C245.531 281.292 243.215 283.13 242.682 284.046L241.93 285.34L237.077 277.953C234.407 273.89 232.223 270.41 232.223 270.22C232.223 270.029 234.01 264.474 236.195 257.875C238.38 251.276 240.167 245.837 240.167 245.789C240.167 245.74 238.908 245.989 237.369 246.341C235.829 246.694 232.493 247.914 229.954 249.053C224.901 251.321 225 251.287 225 250.753C225 250.548 226.916 249.095 229.259 247.524C232.582 245.294 234.419 244.35 237.622 243.221C240.869 242.077 241.852 241.569 242.322 240.786C242.649 240.243 246.158 237.318 250.119 234.287L257.321 228.777L264.749 219.605L272.177 210.433L272.605 196.588C272.842 188.974 273.139 178.862 273.267 174.119L273.5 165.493L266.187 160.61L258.874 155.726L259.16 154.019C259.317 153.08 259.472 151.761 259.504 151.089C259.552 150.057 259.808 149.722 261.149 148.932C262.023 148.417 263.587 147.162 264.625 146.142C265.662 145.122 266.628 144.406 266.769 144.55C266.911 144.693 266.664 145.57 266.22 146.497C265.776 147.425 265.462 148.233 265.522 148.295C265.583 148.356 266.625 148.639 267.839 148.923C269.922 149.412 270.187 149.394 272.531 148.6C274.483 147.94 275.306 147.422 276.369 146.186C277.113 145.32 277.723 144.416 277.723 144.177C277.724 143.938 277.204 142.391 276.567 140.74C275.405 137.724 275.333 137.684 274.712 139.711C274.557 140.219 269.057 142.481 269.057 142.036C269.057 141.958 269.939 139.041 271.017 135.553L272.976 129.212L273.58 120.45C274.148 112.212 274.147 111.257 273.564 104.5L272.944 97.313L271.016 93.4631C269.956 91.3457 268.215 88.2137 267.147 86.5029C265.206 83.394 265.205 83.3922 262.166 82.055C260.494 81.3191 259.086 80.7527 259.037 80.7956C258.987 80.8388 260.192 83.4179 261.714 86.5267C264.257 91.723 264.592 92.6814 265.866 98.3899C267.22 104.459 267.252 104.764 267.252 111.861C267.252 116.578 266.992 121.662 266.512 126.367L265.772 133.612L263.352 139.064L260.932 144.517L257.912 147.183L254.892 149.848L251.433 148.671C247.739 147.414 246.799 146.628 248.989 146.628C249.934 146.628 250.991 146.154 252.873 144.887L255.459 143.145L257.749 138.244L260.039 133.343L260.78 123.601L261.521 113.86L260.768 105.037L260.015 96.2131L257.714 89.7966L255.414 83.3801L252.077 82.0469L248.741 80.7134L250.692 79.4459C251.766 78.7489 254.753 76.2853 257.33 73.9714C259.907 71.6574 263.072 69.0413 264.363 68.1584C265.654 67.2751 267.898 65.5958 269.35 64.4266C270.802 63.257 273.021 61.6811 274.283 60.9239L276.575 59.5475L276.823 54.231C276.96 51.3069 277.285 47.3302 277.545 45.3935C277.966 42.263 278.23 41.4904 279.926 38.427C282.552 33.6825 283.877 31.6446 285.83 29.3431C286.75 28.2589 287.436 27.3038 287.354 27.2206C286.902 26.7615 276.866 31.3447 272.563 33.9758C269.785 35.6742 269.654 35.8249 262.407 45.6054C257.535 52.181 254.192 57.0997 252.469 60.2273L249.874 64.9403L249.524 70.677C249.331 73.832 248.935 77.2537 248.643 78.2807C248.155 79.9937 247.989 80.1851 246.632 80.5976C245.818 80.845 245.117 80.995 245.073 80.9305C245.029 80.8663 245.207 77.7611 245.469 74.0304C245.731 70.2997 245.905 66.4835 245.855 65.5504L245.765 63.8535L241.887 66.1004L238.009 68.3472L237.291 70.5472C236.602 72.6576 235.557 81.2047 235.94 81.5934C236.042 81.6968 236.922 81.4332 237.896 81.0075C239.638 80.2467 239.693 80.2448 241.226 80.9059L242.784 81.578L241.296 82.2596C240.477 82.6347 239.806 83.0498 239.806 83.1817C239.806 83.3141 240.794 83.7431 242.001 84.1351L244.196 84.8482L247.418 93.6212L250.64 102.395L250.639 111.037C250.638 119.148 250.582 119.893 249.716 123.162C249.209 125.078 248.384 128.203 247.883 130.107C246.932 133.726 243.793 139.662 242.831 139.662C242.57 139.662 242.427 139.456 242.513 139.203C242.952 137.915 246.1 126.606 247.546 121.12C249.132 115.101 249.196 114.663 249.193 109.753L249.19 104.646L247.082 98.0463C245.093 91.8231 244.814 91.2104 242.183 87.3107L239.394 83.1748L236.489 84.7441C232.595 86.8472 231.639 88.3171 229.864 94.9298C228.434 100.259 228.337 100.527 227.935 100.275C227.788 100.183 227.947 97.9943 228.287 95.4108C228.818 91.3798 229.123 90.245 230.439 87.4133C231.669 84.765 232.24 82.7744 233.332 77.3303C234.08 73.5996 234.99 69.6588 235.353 68.5731L236.014 66.5986L240.709 64.7771C243.291 63.775 246.033 62.931 246.802 62.9013L248.2 62.8474L251.316 57.4895C253.03 54.5426 256.603 49.0457 259.257 45.2743C263.837 38.7651 264.317 38.2169 268.705 34.4928C271.248 32.3343 273.952 30.3419 274.714 30.0644C275.476 29.7872 278.293 28.6304 280.975 27.4941C285.591 25.5373 286.272 25.105 293.813 19.3448C300.963 13.8835 301.82 13.115 302.201 11.8247C302.776 9.8752 305.436 6.25521 305.727 7.02555C305.846 7.33794 305.376 9.42751 304.685 11.6692L303.427 15.745L303.761 27.3801C304.074 38.302 304.173 39.4614 305.382 46.3024L306.669 53.5897L309.441 58.1711L312.212 62.7521L316.249 65.2596L320.287 67.7668L326.902 69.0479C332.551 70.1416 352.437 73.1163 407.456 81.0973L418.198 82.6556L421.468 81.9179C424.449 81.2451 424.805 81.0716 425.503 79.9478C425.924 79.2703 426.665 77.1253 427.151 75.1813C427.902 72.1714 428.06 70.5046 428.213 63.9474C428.313 59.7125 428.203 52.2877 427.969 47.4479C427.575 39.2846 427.44 38.1986 426.104 32.4348L424.664 26.2214L422.27 23.5056C419.862 20.774 417.709 18.9712 414.347 16.871C412.33 15.6104 415.08 16.1366 378.766 10.064C368.497 8.34698 358.584 6.59986 356.738 6.18151C354.891 5.76315 347.53 4.44246 340.38 3.2468C333.229 2.05077 326.851 0.980866 326.205 0.869402C325.56 0.757573 325.032 0.508613 325.032 0.316119C325.032 0.111525 326.796 -0.0190041 329.275 0.00226194C332.576 0.0301278 335.523 0.398617 342.546 1.66101ZM362.304 91.3549C363.934 93.3931 364.657 96.6497 363.837 98.2597C363.538 98.8482 363.229 99.3296 363.151 99.3296C363.073 99.3296 362.635 98.7111 362.178 97.9547C361.722 97.1986 360.638 95.805 359.771 94.8583L358.194 93.1364L359.325 91.4667C359.947 90.5482 360.592 89.7966 360.757 89.7966C360.922 89.7966 361.618 90.4976 362.304 91.3549ZM227.528 105.681C227.528 107.538 230.078 124.528 231.165 129.907L232.653 137.278L234.695 139.205C235.818 140.265 237.913 141.832 239.351 142.688C240.788 143.544 241.966 144.368 241.969 144.52C241.981 145.302 238.645 144.685 235.473 143.318L232.042 141.84L230.701 137.543C228.702 131.137 226.806 118.219 226.806 111.008C226.806 107.622 226.942 105.563 227.167 105.563C227.366 105.563 227.528 105.616 227.528 105.681ZM355.186 108.21C357.665 109.316 357.767 109.33 360.514 108.931L363.314 108.523L365.736 110.362C368.072 112.135 368.278 112.425 371.5 118.506C373.338 121.975 374.848 124.935 374.855 125.084C374.861 125.234 374.177 125.088 373.332 124.759C372.295 124.355 370.45 122.826 367.645 120.043L363.492 115.924L359.483 115.136L355.475 114.347L350.455 115.242C347.694 115.734 342.918 116.899 339.842 117.832C335.62 119.111 333.781 119.501 332.344 119.42L330.441 119.312L336.313 115.602C341.231 112.494 351.667 106.963 352.436 107.056C352.558 107.071 353.795 107.59 355.186 108.21ZM358.797 124.037L362.408 124.446L360.258 126.014C359.076 126.877 357.884 127.496 357.611 127.389C357.337 127.283 356.716 127.195 356.232 127.195C355.379 127.195 352.116 124.542 352.116 123.849C352.116 123.452 354.118 123.508 358.797 124.037ZM262.918 150.125C262.918 150.233 263.768 151.398 264.806 152.713C266.608 154.996 268.863 156.848 269.301 156.403C269.414 156.288 269.391 155.105 269.251 153.773C269.018 151.564 268.927 151.362 268.214 151.465C267.572 151.558 267.449 151.792 267.524 152.77C267.574 153.425 267.462 153.961 267.275 153.961C267.087 153.961 266.315 153.056 265.558 151.949C264.785 150.818 263.905 149.935 263.55 149.932C263.203 149.93 262.918 150.016 262.918 150.125ZM301.92 159.321C313.6 161.583 312.013 161.532 328.824 160.183C333.789 159.785 340.939 159.212 344.713 158.909C348.487 158.606 354.376 158.36 357.799 158.36L364.024 158.361L369.657 161.925C372.756 163.886 375.155 165.53 374.989 165.579C364.138 168.778 359.471 170.212 359.278 170.404C359.146 170.536 358.718 178.38 358.328 187.835L357.618 205.025L358.872 208.827C359.561 210.918 360.233 212.565 360.364 212.488C360.495 212.41 361.717 211.658 363.08 210.816C364.442 209.974 365.607 209.335 365.667 209.397C366.187 209.929 368.367 214.308 368.367 214.821C368.367 215.183 366.987 223.623 365.301 233.577C363.615 243.531 361.82 254.15 361.313 257.175C359.554 267.657 360.91 264.977 347.575 284.333C341.035 293.825 330.81 308.691 324.851 317.368L314.017 333.146L310.073 336.226C303.725 341.181 302.659 341.65 300.503 340.438L299.628 339.946L300.418 339.691C300.853 339.551 301.123 339.296 301.019 339.125C300.914 338.954 298.556 338.045 295.777 337.105L290.725 335.395V331.145V326.896L293.702 329.801C295.34 331.398 296.843 332.88 297.043 333.093C297.242 333.306 298.575 334.603 300.004 335.975L302.602 338.47L304.851 336.688C307.038 334.954 314.747 324.701 351.428 274.734L356.033 268.462L357.536 258.847C358.363 253.559 358.964 249.156 358.871 249.062C358.71 248.898 354.735 252.623 347.422 259.794C344.154 262.998 343.785 263.245 339.657 264.996C337.274 266.007 330.544 268.907 324.703 271.441L314.082 276.047L308.994 275.511C306.195 275.217 299.843 274.557 294.878 274.045C283.814 272.904 282.78 272.759 282.78 272.349C282.78 272.166 289.519 272.024 298.298 272.024H313.816L321.641 268.468L329.466 264.912L331.492 261.668C340.635 247.032 344.996 240.293 345.385 240.203C345.812 240.105 345.377 246.651 344.336 255.983C344.179 257.384 344.23 258.091 344.487 258.091C344.699 258.091 348.274 254.64 352.432 250.421C357.649 245.126 360.057 242.429 360.203 241.713C360.32 241.142 360.985 236.963 361.682 232.426C362.379 227.888 363.129 223.156 363.347 221.909C363.774 219.475 363.604 218.763 362.634 218.93C361.624 219.104 358.491 216.14 357.827 214.381C357.499 213.517 356.422 210.813 355.432 208.374L353.633 203.939L353.946 200.858C355.117 189.341 356.818 171.08 356.729 170.989C356.67 170.929 352.655 171.336 347.808 171.895L338.994 172.91L325.061 170.596C317.398 169.323 307.845 167.535 303.832 166.621C299.819 165.708 296.452 164.961 296.35 164.961C296.248 164.961 295.609 165.841 294.932 166.916L293.7 168.871L292.856 178.266L292.013 187.661L293.326 198.585C294.401 207.53 294.587 210.041 294.353 212.443C294.196 214.056 293.949 217.315 293.805 219.684C293.603 223.008 293.427 223.993 293.036 223.993C292.758 223.993 292.531 223.656 292.531 223.246C292.531 222.835 292.127 218.504 291.634 213.621C291.141 208.738 290.252 199.932 289.658 194.051L288.578 183.36L289.467 170.585C289.955 163.56 290.357 157.688 290.359 157.536C290.366 157.107 290.976 157.201 301.92 159.321ZM380.471 224.134C383.303 225.445 384.884 226.62 392.569 233.128C397.432 237.245 401.462 240.652 401.525 240.7C401.588 240.748 401.432 241.126 401.177 241.54C400.923 241.954 400.801 242.38 400.906 242.487C401.012 242.594 404.093 244.052 407.754 245.727C411.415 247.403 418.653 250.746 423.838 253.157C433.217 257.518 433.265 257.546 432.888 258.458C432.68 258.962 432.405 259.504 432.278 259.662C431.989 260.018 430.079 259.139 416.938 252.599C404.289 246.304 400.185 244.431 399.567 244.672C398.602 245.048 397.892 247.349 396.861 253.453C396.277 256.912 394.9 265.104 393.8 271.658C392.702 278.212 391.679 284.069 391.528 284.674C391.256 285.761 391.166 285.797 383.872 287.758C379.813 288.849 376.445 289.776 376.388 289.819C376.331 289.861 377.988 294.743 380.07 300.668C382.153 306.592 383.743 311.546 383.605 311.675C383.264 311.994 335.527 339.87 334.91 340.11C334.641 340.215 334.421 340.131 334.421 339.924C334.421 339.717 338.118 336.843 342.637 333.537C347.155 330.231 356.905 323.099 364.304 317.689C371.702 312.278 377.756 307.708 377.756 307.532C377.756 307.356 374.181 299.226 369.811 289.465C365.442 279.704 361.867 271.539 361.867 271.321C361.867 271.103 361.989 270.931 362.137 270.939C362.286 270.948 365.412 274.993 369.084 279.929C372.756 284.864 375.93 288.836 376.138 288.755C377.148 288.362 388.444 279.952 388.679 279.419C388.944 278.817 396.8 243.112 396.982 241.678C397.053 241.118 394.771 238.936 387.506 232.616C376.362 222.923 376.912 223.431 377.082 222.978C377.155 222.784 378.68 223.304 380.471 224.134ZM270.89 267.024C271.769 267.712 273.707 269.786 275.197 271.632C277.421 274.389 278.614 275.47 281.877 277.683C285.935 280.435 287.795 282.088 287.346 282.543C287.143 282.75 277.577 278.217 275.532 276.945C274.648 276.395 268.637 266.438 268.979 266.09C269.155 265.912 269.991 266.321 270.89 267.024Z" fill="#9A9A9A"/>
</svg>
